<?xml version="1.0" encoding="UTF-8"?>
<!DOCTYPE svg PUBLIC "-//W3C//DTD SVG 1.1//EN" "http://www.w3.org/Graphics/SVG/1.1/DTD/svg11.dtd">
<!-- Creator: CorelDRAW 2020 (64 Bit) -->
<svg xmlns="http://www.w3.org/2000/svg" xml:space="preserve" width="7.5298mm" height="5.6467mm" version="1.1" style="shape-rendering:geometricPrecision; text-rendering:geometricPrecision; image-rendering:optimizeQuality; fill-rule:evenodd; clip-rule:evenodd"
viewBox="0 0 6.04 4.53"
 xmlns:xlink="http://www.w3.org/1999/xlink"
 xmlns:xodm="http://www.corel.com/coreldraw/odm/2003">
 <defs>
  <style type="text/css">
   <![CDATA[
    .fil0 {fill:white}
    .fil1 {fill:white;fill-opacity:0.850980}
   ]]>
  </style>
 </defs>
 <g id="Camada_x0020_1">
  <metadata id="CorelCorpID_0Corel-Layer"/>
  <g id="_2118301598464">
   <path class="fil0" d="M2.53 1.79c-0.22,0.03 -1.82,-0.02 -2.24,0.01 -0.27,0.01 -0.29,0.2 -0.29,0.47 0,0.18 -0.03,0.44 0.27,0.47 0.23,0.02 0.52,0 0.75,0 0.5,-0 1,0 1.51,0 -0.02,0.04 -0.01,0.02 -0.03,0.04l-0.21 0.18c-0.05,0.04 -0.06,0.07 -0.11,0.11 -0.05,0.05 -0.07,0.05 -0.12,0.11 -0.04,0.05 -0.43,0.38 -0.47,0.44 -0.18,0.25 0.14,0.47 0.23,0.57 0.07,0.07 0.15,0.17 0.32,0.13 0.13,-0.03 0.18,-0.13 0.25,-0.2l1.59 -1.57c0.07,-0.09 0.16,-0.13 0.16,-0.3 -0.01,-0.16 -0.23,-0.31 -0.4,-0.5 -0.07,-0.08 -0.15,-0.15 -0.23,-0.23 -0.36,-0.37 -0.8,-0.76 -1.14,-1.12 -0.06,-0.07 -0.13,-0.16 -0.25,-0.18 -0.15,-0.03 -0.25,0.07 -0.31,0.13 -0.09,0.09 -0.42,0.34 -0.22,0.58l0.93 0.86z"/>
   <path class="fil1" d="M3.88 0.01c-0.16,0.03 -0.11,0.26 -0.11,0.41 0,0.43 -0.01,0.34 0.69,0.34 0.32,0 0.68,-0.08 0.79,0.24 0.04,0.12 0.02,0.36 0.02,0.5 0.01,0.34 0,0.7 0,1.05 -0,0.22 0.03,0.84 -0.04,1 -0.12,0.29 -0.46,0.22 -0.8,0.22 -0.7,0 -0.67,-0.07 -0.66,0.37 0,0.47 -0.01,0.37 0.66,0.38 0.35,0 0.62,0.04 0.92,-0.1 0.25,-0.12 0.4,-0.25 0.54,-0.49 0.16,-0.28 0.15,-0.54 0.14,-0.9 -0.01,-0.35 -0,-0.7 -0,-1.05 0,-0.49 0.09,-1.17 -0.24,-1.56 -0.42,-0.47 -0.79,-0.42 -1.39,-0.42 -0.12,0 -0.41,-0.01 -0.51,0z"/>
  </g>
 </g>
</svg>
