<?xml version="1.0" encoding="UTF-8"?>
<!DOCTYPE svg PUBLIC "-//W3C//DTD SVG 1.1//EN" "http://www.w3.org/Graphics/SVG/1.1/DTD/svg11.dtd">
<!-- Creator: CorelDRAW 2020 (64 Bit) -->
<svg xmlns="http://www.w3.org/2000/svg" xml:space="preserve" width="70.4909mm" height="160.76mm" version="1.1" style="shape-rendering:geometricPrecision; text-rendering:geometricPrecision; image-rendering:optimizeQuality; fill-rule:evenodd; clip-rule:evenodd"
viewBox="0 0 75.92 173.15"
 xmlns:xlink="http://www.w3.org/1999/xlink"
 xmlns:xodm="http://www.corel.com/coreldraw/odm/2003">
 <defs>
  <style type="text/css">
   <![CDATA[
    .fil1 {fill:none}
    .fil0 {fill:white}
   ]]>
  </style>
 </defs>
 <g id="Camada_x0020_1">
  <metadata id="CorelCorpID_0Corel-Layer"/>
  <path class="fil0" d="M29.96 103.9c-2.64,0 -4.86,1.78 -5.54,4.2l0.45 0c0.66,-2.18 2.69,-3.77 5.09,-3.77 2.94,0 5.32,2.38 5.32,5.32 0,2.94 -2.38,5.32 -5.32,5.32 -2.4,0 -4.42,-1.59 -5.09,-3.77l-0.45 0c0.68,2.42 2.9,4.2 5.54,4.2 3.18,0 5.75,-2.57 5.75,-5.75 0,-3.18 -2.57,-5.75 -5.75,-5.75zm-2.87 5.03l-0.03 0.05c-0.04,0.06 -0.08,0.12 -0.1,0.18l-1.93 -0.06c-2.53,-0.07 -5.11,-0.08 -7.63,-0.26 -0.72,-0.05 -1.63,-0.05 -1.49,0.96 0.12,0.69 0.56,0.73 1.18,0.69 0.31,-0.02 0.59,-0.06 0.91,-0.08 1.83,-0.1 3.66,-0.11 5.49,-0.16l3.46 -0.1c0.01,0.03 0.03,0.06 0.05,0.09l0 0 0 0 0 0c0.02,0.05 0.05,0.1 0.08,0.14l0 -0.03c0.28,0.36 0.81,0.6 1.41,0.6 1.32,0 2.65,-0.01 3.97,0 0.18,0 0.48,0.05 0.49,-0.15 0.01,-0.1 0,-0.23 0,-0.34l-3.04 0 0 -0.24 3.04 0 0 -0.46 -3.04 0 0 -0.24 3.04 0 0 -0.45 -3.04 0 0 -0.24 3.04 0c0,-0.1 0.02,-0.35 -0.04,-0.43 -0.09,-0.11 -0.4,-0.07 -0.54,-0.07 -1.29,0 -2.59,0 -3.88,0 -0.6,0 -1.13,0.24 -1.41,0.6l0 -0.01z"/>
  <rect class="fil1" x="0" width="75.92" height="173.15"/>
 </g>
</svg>
