<?xml version="1.0" encoding="UTF-8"?>
<!DOCTYPE svg PUBLIC "-//W3C//DTD SVG 1.1//EN" "http://www.w3.org/Graphics/SVG/1.1/DTD/svg11.dtd">
<!-- Creator: CorelDRAW 2020 (64 Bit) -->
<svg xmlns="http://www.w3.org/2000/svg" xml:space="preserve" width="335.288mm" height="120.553mm" version="1.1" style="shape-rendering:geometricPrecision; text-rendering:geometricPrecision; image-rendering:optimizeQuality; fill-rule:evenodd; clip-rule:evenodd"
viewBox="0 0 1558.05 560.2"
 xmlns:xlink="http://www.w3.org/1999/xlink"
 xmlns:xodm="http://www.corel.com/coreldraw/odm/2003">
 <defs>
  <style type="text/css">
   <![CDATA[
    .str0 {stroke:white;stroke-width:0.35;stroke-miterlimit:22.9256}
    .fil0 {fill:none}
    .fil3 {fill:white}
    .fil2 {fill:white;fill-rule:nonzero}
    .fil1 {fill:white;fill-rule:nonzero}
   ]]>
  </style>
    <clipPath id="id0">
     <path d="M289.46 119.98l979.03 0 0 440.22 -979.03 0 0 -440.22z"/>
    </clipPath>
     <clipPath id="id1">
      <path d="M340.26 170.77l877.45 0 0 279.06 -877.45 0 0 -279.06z"/>
     </clipPath>
     <clipPath id="id2">
      <path d="M652.72 411.31l261.91 0 0 61.4 -261.91 0 0 -61.4z"/>
     </clipPath>
 </defs>
 <g id="Camada_x0020_1">
  <metadata id="CorelCorpID_0Corel-Layer"/>
  <rect class="fil0" x="-0" width="1558.05" height="560.2"/>
  <g id="_1572497850992">
   <g style="clip-path:url(#id0)">
    <image x="289.46" y="119.98" width="979.03" height="440.22" xlink:href="hero-texto-1_Images\hero-texto-1_ImgID1.png"/>
   </g>
  </g>
  <g id="_1572497842208">
   <g>
    <g style="clip-path:url(#id1)">
     <image x="340.26" y="170.77" width="877.45" height="279.06" xlink:href="hero-texto-1_Images\hero-texto-1_ImgID2.png"/>
    </g>
   </g>
   <path class="fil1" d="M532.66 246.54c0,0.68 -0.23,1.36 -0.23,1.82 0,2.04 0.68,2.95 1.59,2.95 1.13,0 2.95,-2.04 4.08,-5.67 0.45,-1.59 0.91,-3.18 0.91,-4.54 0,-6.81 -6.58,-10.21 -17.02,-10.21 -14.75,0 -36.99,6.35 -61.27,18.61 -4.31,2.27 -8.17,4.08 -8.85,4.31 -0.68,0.45 -1.82,0.91 -2.5,1.59 -0.68,0.45 -3.18,1.82 -5.22,3.18 -33.36,19.06 -68.08,46.75 -71.25,56.5 -0.23,0.91 -0.45,1.82 -0.45,2.5 0,3.63 3.63,4.99 13.84,5.9 13.16,1.13 20.65,3.18 26.32,7.26 0.91,0.68 1.82,1.36 1.82,1.59 0,0 -1.59,0.68 -3.4,1.59 -8.62,3.63 -18.15,9.08 -19.74,10.89 -0.45,0.68 -0.68,1.36 -0.68,2.04 0,1.13 0.91,2.04 2.04,2.04 0.45,0 1.13,-0.23 1.82,-0.91 1.59,-1.36 16.57,-8.4 18.15,-8.4l0.23 0c0,0 -0.68,2.5 -1.36,5.45 -6.81,23.37 -10.21,43.11 -10.21,56.05 0,8.4 1.59,14.07 4.54,15.88 0.68,0.45 1.59,0.68 2.5,0.68 3.63,0 7.49,-4.54 11.8,-13.61 6.13,-13.16 9.3,-27.46 9.3,-40.16 0,-10.21 -1.82,-19.51 -5.9,-26.32 -0.23,-0.68 -0.68,-1.13 -0.68,-1.36 0,-0.68 1.13,-0.91 5.45,-2.27 6.81,-2.04 11.12,-2.95 13.16,-2.95 0.91,0 1.36,0.23 1.36,0.68l0 0.23c0,1.36 0.68,2.04 1.82,2.04 1.59,0 3.86,-1.82 4.08,-4.31l0 -0.91c0,-2.95 -2.04,-4.31 -6.35,-4.31 -3.18,0 -7.49,0.91 -12.93,2.5 -2.04,0.68 -3.63,1.13 -3.86,1.13 0,0 -0.23,0 -0.23,-0.23 0,-0.68 1.13,-3.63 4.31,-11.8 5.45,-14.52 9.98,-24.96 18.83,-43.34 6.35,-13.16 5.22,-11.8 12.48,-15.2 24.73,-12.03 45.61,-18.38 60.13,-18.38 2.27,0 4.31,0.23 6.13,0.45 4.31,0.68 5.67,1.36 5.67,4.77 0,0.68 -0.23,1.36 -0.23,2.27zm-109.37 99.62c1.59,4.54 2.27,10.21 2.27,16.11 0,17.47 -5.9,38.35 -14.52,47.65 -0.68,0.91 -1.36,1.13 -1.82,1.13 -1.36,0 -1.82,-2.04 -1.82,-6.13 0,-9.3 3.4,-28.82 9.53,-50.83 2.5,-8.85 3.4,-12.48 4.31,-12.48 0.68,0 1.13,1.82 2.04,4.54zm15.43 -71.71c-8.85,17.7 -16.34,35.85 -22.24,53.33 0,0.23 0,0.45 -0.23,0.45 -0.23,0 -1.13,-0.45 -2.72,-1.59 -6.13,-4.31 -13.16,-6.13 -29.05,-7.72 -5.9,-0.45 -7.72,-0.91 -7.72,-2.04 0,-0.45 0.23,-0.91 0.45,-1.36 3.86,-6.58 21.1,-20.88 41.3,-34.04 8.17,-5.45 22.69,-14.07 23.37,-14.07 0,0.45 -1.59,3.4 -3.18,7.03zm116.18 -48.33c-26.78,28.14 -53.1,78.74 -58.77,113.69 -0.68,4.54 -0.23,3.86 -5.9,7.94 -6.58,4.77 -11.8,7.03 -15.43,7.03 -3.4,0 -5.22,-2.04 -5.22,-6.35 0,-3.63 1.59,-8.85 4.54,-15.66 0.68,-1.36 0.91,-2.5 0.91,-3.4 0,-1.36 -0.91,-2.27 -2.04,-2.27 -2.27,0 -5.67,2.5 -7.94,6.81 -2.5,5.22 -3.86,9.76 -3.86,13.61 0,7.49 4.76,12.03 11.8,12.03 5.67,0 12.71,-2.72 20.42,-8.62 0.45,-0.45 0.68,-0.68 0.91,-0.68 0.45,0 0.45,1.13 0.45,4.08 0,15.88 5.67,27.23 14.52,28.82 1.13,0.23 2.04,0.45 3.18,0.45 5.67,0 11.57,-3.86 19.97,-12.25 14.3,-14.3 26.55,-30.86 26.55,-35.17 0,-0.68 -0.45,-1.13 -1.13,-1.13 -0.68,0 -0.45,0 -6.58,8.4 -17.25,23.37 -31.09,35.4 -39.94,35.4 -6.58,0 -10.21,-6.58 -10.21,-20.65l0 -0.45c0,-12.03 0.23,-13.16 4.77,-17.25 33.36,-31.54 67.17,-86.23 70.57,-113.69 0.23,-1.13 0.23,-2.27 0.23,-3.18 0,-5.22 -2.04,-7.94 -5.45,-7.94 -4.08,0 -9.76,3.4 -16.34,10.44zm16.57 0c-2.04,23.37 -30.63,71.71 -61.49,104.16 -3.18,3.4 -5.9,5.9 -6.35,5.9 0,-2.72 7.26,-23.6 11.8,-34.04 15.88,-36.76 46.52,-80.56 54.23,-80.56 1.36,0 1.82,0.91 1.82,3.18l0 1.36zm-97.57 96.67c0.68,0.23 1.59,0.45 2.5,0.45 0.91,0 1.82,-0.23 2.5,-0.45 1.59,-0.91 2.27,-2.5 2.27,-3.86 0,-2.27 -2.04,-4.54 -4.54,-4.54 -0.68,0 -1.36,0 -2.04,0.45 -1.82,0.91 -2.72,2.72 -2.72,4.31 0,1.36 0.68,2.72 2.04,3.63zm87.36 51.51c0.68,0 1.36,0.23 2.27,0.23 10.67,0 23.37,-10.67 39.94,-32.68 2.72,-3.4 4.08,-5.9 4.08,-7.49 0,-0.91 -0.45,-1.36 -1.59,-1.36 -1.13,0 -1.36,0.23 -5.22,5.45 -12.03,15.88 -19.97,23.83 -27.23,27.91 -3.4,1.82 -6.58,2.72 -9.3,2.72 -5.45,0 -9.08,-3.63 -9.08,-9.98 0,-1.36 0,-2.95 0.45,-4.54 0.23,-1.36 0.45,-1.82 0.91,-1.82 0.45,0 0.91,0 1.82,0.45 0.91,0.23 1.59,0.45 2.5,0.45 7.94,0 16.79,-13.16 16.79,-22.47 0,-2.72 -0.68,-5.22 -2.72,-6.81 -1.36,-1.13 -2.72,-1.59 -4.31,-1.59 -7.72,0 -17.7,12.03 -21.56,27.68 -0.68,2.5 -0.91,4.99 -0.91,7.03 0,9.3 4.99,15.66 13.16,16.79zm2.27 -30.41c-0.68,0.45 -1.36,0.68 -1.82,0.68 -0.91,0 -1.59,-0.68 -1.59,-1.59 0,-0.68 0.23,-1.36 0.68,-2.04 3.18,-5.9 7.72,-11.35 9.53,-11.35 0.45,0 0.68,0.45 0.68,1.13 0,3.63 -4.08,10.67 -7.49,13.16zm10.21 -36.99c-0.45,0.68 -0.45,1.13 -0.45,1.82 0,0.91 0.23,1.59 1.13,2.27 0.68,0.45 1.13,0.91 1.82,0.91 0.45,0 1.36,-0.45 2.27,-0.91 0.91,-0.68 2.72,-1.82 4.08,-2.5 4.77,-2.72 5.9,-3.4 6.58,-4.77 0.23,-0.45 0.45,-0.91 0.45,-1.59 0,-1.59 -1.59,-2.95 -3.63,-2.95l-0.68 0c-3.86,0.68 -10.21,4.77 -11.57,7.72zm137.51 89.41c0.68,0.23 1.36,0.23 1.82,0.23 2.95,0 5.22,-2.04 5.67,-4.76l0 -0.68c0,-1.36 -0.45,-1.82 -1.82,-1.82l-0.91 0c-7.03,0.91 -6.81,-22.92 -2.72,-41.3 2.72,-13.39 2.95,-13.84 6.35,-17.47 14.3,-14.3 27,-31.54 40.62,-54.23 18.38,-30.18 29.05,-54.01 29.05,-66.03 0,-4.54 -1.59,-7.26 -4.99,-7.26 -0.45,0 -1.13,0 -1.82,0.23 -18.83,4.08 -54.69,65.13 -71.48,124.35l-1.13 3.4c-0.23,-0.68 -0.45,-2.27 -0.68,-3.18 -2.5,-10.21 -8.4,-12.03 -13.39,-12.03 -1.59,0 -3.18,0.23 -4.77,0.91 -12.93,4.76 -22.47,29.27 -22.47,45.38 0,8.4 2.5,14.75 8.62,14.75l0.45 0c6.13,-0.23 12.03,-6.13 23.37,-23.15 2.5,-3.63 4.54,-6.58 4.77,-6.58 0,0.23 -0.23,2.27 -0.68,4.76 -1.36,7.26 -2.04,14.07 -2.04,20.2 0,13.39 2.95,22.92 8.17,24.28zm-30.18 -26.55c-1.36,0.91 -2.27,1.36 -2.95,1.36 -1.59,0 -2.04,-2.04 -2.04,-7.03 0,-17.02 11.57,-38.12 19.74,-38.12 1.13,0 2.04,0.45 2.95,1.13 1.82,1.59 6.13,9.76 6.13,11.8l0 0.23c-2.5,4.31 -13.39,20.2 -15.88,23.15 -2.27,2.5 -6.35,6.35 -7.94,7.49zm43.34 -50.83c-3.4,4.08 -4.99,6.13 -5.45,6.13 0,-0.23 0.91,-2.72 1.82,-5.9 14.98,-42.43 34.26,-81.92 51.74,-102.11 4.54,-4.99 9.08,-8.62 10.89,-8.62 0.45,0 0.68,0.23 0.68,0.68l0 0.45c0,16.79 -30.41,75.11 -59.68,109.37zm17.93 46.75c0.45,0.23 0.91,0.23 1.59,0.23 6.35,0 14.3,-11.8 15.66,-24.96 0.23,-1.36 0.45,-1.59 0.91,-1.59 2.95,1.36 6.13,2.04 9.3,2.04 4.54,0 9.08,-1.13 13.84,-3.63 2.5,-1.13 3.63,-2.5 3.63,-3.4 0,-0.45 -0.45,-0.91 -1.59,-0.91 -0.68,0 -2.04,0.23 -3.4,0.91 -4.54,2.04 -8.4,2.95 -11.8,2.95 -3.86,0 -7.03,-1.13 -9.98,-3.63 -1.36,-1.13 -3.18,-5.67 -3.18,-7.94 0,-2.95 -1.59,-4.31 -3.63,-4.31 -2.27,0 -5.45,1.82 -8.17,5.22 -6.13,7.72 -9.53,18.15 -9.53,26.1 0,6.58 2.04,11.57 6.35,12.93zm4.08 -7.94c-0.68,0.45 -1.13,0.68 -1.36,0.68 -0.68,0 -0.68,-0.68 -0.68,-2.95 0,-8.17 5.67,-23.37 8.17,-23.37 0.23,0 0.45,0.23 0.68,0.45 0.45,0.91 0.91,1.82 1.13,2.04 0.45,0.68 0.68,1.59 0.68,2.95 0,5.9 -4.31,17.02 -8.62,20.2zm213.08 -18.61c-1.13,0 -2.27,1.13 -5.9,7.03 -6.35,9.98 -18.83,25.64 -31.54,39.48 -15.43,16.79 -28.59,24.05 -38.8,24.05 -14.75,0 -23.15,-15.43 -23.15,-38.58 0,-25.41 10.21,-60.13 32.9,-94.17 14.98,-22.46 33.36,-36.53 44.7,-36.53 4.31,0 7.72,2.04 9.3,6.58 0.45,1.36 0.68,2.95 0.68,4.77 0,13.39 -11.57,38.58 -21.78,44.7 -1.59,0.91 -2.5,2.27 -2.5,3.4 0,1.82 2.04,3.63 4.77,3.63 0.91,0 1.59,-0.23 2.5,-0.45 11.8,-3.86 26.78,-32 26.78,-49.01l0 -2.04c-1.13,-13.16 -8.4,-19.74 -18.38,-19.74 -11.35,0 -26.32,8.4 -40.16,24.73 -28.82,34.04 -44.7,79.19 -44.7,112.55 0,24.05 8.4,41.75 26.32,44.02 1.13,0.23 2.27,0.23 3.4,0.23 11.35,0 23.6,-7.26 38.58,-22.47 19.74,-20.2 38.12,-44.7 38.12,-50.83 0,-0.91 -0.45,-1.36 -1.13,-1.36zm-1.82 52.87c0.91,0.45 1.59,0.68 2.5,0.68 0.45,0 1.13,-0.23 1.82,-0.45 1.82,-0.91 2.72,-2.72 2.72,-4.31 0,-1.36 -0.68,-2.5 -2.04,-2.5 -0.91,0 -0.91,0 -1.36,-5.9l0 -0.45c0,-7.72 11.57,-31.54 20.88,-43.34 1.36,-1.59 2.04,-2.5 2.5,-2.5 1.13,0 1.82,2.27 3.86,8.17 5.45,15.88 12.71,23.83 22.69,23.83 3.4,0 7.26,-1.13 11.57,-3.18 7.03,-3.4 22.69,-18.83 24.05,-23.6 0.23,-0.68 0.23,-1.13 0.23,-1.59 0,-0.68 -0.23,-1.13 -0.68,-1.13 -1.13,0 -2.95,1.36 -5.22,4.08 -11.57,13.39 -20.65,20.2 -27.68,20.2 -7.26,0 -12.48,-6.81 -16.79,-20.42 -3.86,-12.03 -5.45,-14.52 -9.76,-15.66 -0.45,0 -0.68,-0.23 -1.13,-0.23 -6.13,0 -13.62,11.12 -21.56,31.77 -0.91,1.82 -1.59,3.4 -1.59,3.4 0,-3.18 6.81,-31.77 7.94,-32.68 0.23,-0.23 2.04,-1.36 3.86,-2.5 31.31,-20.65 69.89,-80.33 69.89,-104.84 0,-2.5 -0.45,-4.77 -1.36,-6.35 -1.59,-2.95 -3.63,-4.31 -6.58,-4.31 -16.34,0 -51.74,49.24 -70.8,102.57 -8.4,24.28 -13.16,48.11 -13.16,63.76 0,9.3 1.59,15.66 5.22,17.47zm17.02 -73.98c-1.13,0.91 -2.27,1.59 -2.27,1.59 0,-1.82 8.17,-24.05 12.93,-35.17 15.88,-36.99 41.3,-70.8 50.38,-70.8 2.04,0 3.18,1.82 3.18,5.67l0 1.82c-1.59,23.37 -37.9,78.29 -64.22,96.89zm73.29 56.28c0.68,0 1.36,0.23 2.27,0.23 10.67,0 23.37,-10.67 39.94,-32.68 2.72,-3.4 4.08,-5.9 4.08,-7.49 0,-0.91 -0.45,-1.36 -1.59,-1.36 -1.13,0 -1.36,0.23 -5.22,5.45 -12.03,15.88 -19.97,23.83 -27.23,27.91 -3.4,1.82 -6.58,2.72 -9.3,2.72 -5.45,0 -9.08,-3.63 -9.08,-9.98 0,-1.36 0,-2.95 0.45,-4.54 0.23,-1.36 0.45,-1.82 0.91,-1.82 0.45,0 0.91,0 1.82,0.45 0.91,0.23 1.59,0.45 2.5,0.45 7.94,0 16.79,-13.16 16.79,-22.47 0,-2.72 -0.68,-5.22 -2.72,-6.81 -1.36,-1.13 -2.72,-1.59 -4.31,-1.59 -7.72,0 -17.7,12.03 -21.56,27.68 -0.68,2.5 -0.91,4.99 -0.91,7.03 0,9.3 4.99,15.66 13.16,16.79zm2.27 -30.41c-0.68,0.45 -1.36,0.68 -1.82,0.68 -0.91,0 -1.59,-0.68 -1.59,-1.59 0,-0.68 0.23,-1.36 0.68,-2.04 3.18,-5.9 7.72,-11.35 9.53,-11.35 0.45,0 0.68,0.45 0.68,1.13 0,3.63 -4.08,10.67 -7.49,13.16zm33.36 50.38c0.45,0.23 1.13,0.45 1.59,0.45 6.58,0 14.75,-17.47 14.75,-33.58 0,-4.99 0,-4.99 0.91,-4.99 0.68,-0.23 2.27,-0.45 3.63,-0.68 5.67,-0.68 13.16,-3.86 19.29,-7.94 9.3,-6.13 14.07,-10.44 14.07,-12.48 0,-0.45 -0.45,-0.91 -1.13,-1.13 -0.23,0 -0.45,-0.23 -0.68,-0.23 -0.91,0 -2.5,1.13 -6.81,4.54 -10.89,8.4 -22.47,13.84 -28.37,13.84 -1.36,0 -2.5,-0.45 -3.18,-1.13 -0.91,-1.13 -3.18,-2.27 -4.54,-2.27 -0.91,0 -1.36,0 -1.36,-0.68 0,-0.45 0.23,-1.13 0.45,-2.04 8.17,-29.05 28.14,-73.98 37.44,-84.64 0.91,-1.13 1.59,-1.59 1.82,-1.59 0.23,0 0.45,0.23 0.45,0.45 0.23,0.68 1.13,1.13 1.82,1.13 0.45,0 0.91,0 1.13,-0.23 1.36,-0.91 1.82,-2.5 1.82,-4.08 0,-2.04 -0.91,-4.08 -2.95,-4.77 -0.68,-0.23 -1.36,-0.45 -2.04,-0.45 -18.15,0 -52.87,90.99 -52.87,127.98 0,7.49 1.36,12.71 4.77,14.52zm4.54 -5.9c-0.68,0.91 -1.36,1.36 -1.82,1.36 -0.91,0 -1.13,-1.82 -1.13,-5.9 0,-6.13 1.36,-14.3 3.63,-25.19 0.91,-3.86 1.36,-4.99 1.59,-4.99 0.23,0 0.23,0.23 0.45,0.45 0.23,0.23 1.36,0.68 2.27,0.91 2.04,0.68 2.04,0.91 2.27,2.04 0.23,1.13 0.23,2.27 0.23,3.63 0,8.85 -3.63,22.69 -7.49,27.68zm51.06 -14.07c0.68,0 1.36,0.23 2.27,0.23 10.67,0 23.37,-10.67 39.94,-32.68 2.72,-3.4 4.08,-5.9 4.08,-7.49 0,-0.91 -0.45,-1.36 -1.59,-1.36 -1.13,0 -1.36,0.23 -5.22,5.45 -12.03,15.88 -19.97,23.83 -27.23,27.91 -3.4,1.82 -6.58,2.72 -9.3,2.72 -5.45,0 -9.08,-3.63 -9.08,-9.98 0,-1.36 0,-2.95 0.45,-4.54 0.23,-1.36 0.45,-1.82 0.91,-1.82 0.45,0 0.91,0 1.82,0.45 0.91,0.23 1.59,0.45 2.5,0.45 7.94,0 16.79,-13.16 16.79,-22.47 0,-2.72 -0.68,-5.22 -2.72,-6.81 -1.36,-1.13 -2.72,-1.59 -4.31,-1.59 -7.72,0 -17.7,12.03 -21.56,27.68 -0.68,2.5 -0.91,4.99 -0.91,7.03 0,9.3 4.99,15.66 13.16,16.79zm2.27 -30.41c-0.68,0.45 -1.36,0.68 -1.82,0.68 -0.91,0 -1.59,-0.68 -1.59,-1.59 0,-0.68 0.23,-1.36 0.68,-2.04 3.18,-5.9 7.72,-11.35 9.53,-11.35 0.45,0 0.68,0.45 0.68,1.13 0,3.63 -4.08,10.67 -7.49,13.16z"/>
   <g>
    <g style="clip-path:url(#id2)">
     <image x="652.72" y="411.31" width="261.91" height="61.4" xlink:href="hero-texto-1_Images\hero-texto-1_ImgID3.png"/>
    </g>
   </g>
   <path class="fil2" d="M659.8 428.88l19.38 0 0 4.63 -14.16 0 0 10.12 14.16 0 0 4.63 -14.16 0 0 16.93 -5.22 0 0 -36.32zm63.2 -0.21l3.66 0 16.28 36.53 -5.32 0 -4.83 -10.76 -15.49 0 -4.53 10.76 -5.34 0 15.58 -36.53zm7.7 21.14l-5.9 -13.16 -5.49 13.16 11.4 0zm0.36 -31.42l-5.86 7.83 -2.93 0 3.51 -7.83 5.27 0zm54.8 46.81l-12.3 0 0 -36.32 9.52 0c3,0 5.34,0.4 7.03,1.21 1.68,0.81 2.96,1.92 3.84,3.33 0.89,1.41 1.33,3.05 1.33,4.91 0,3.57 -1.85,6.12 -5.55,7.67 2.65,0.51 4.77,1.6 6.34,3.27 1.57,1.68 2.35,3.69 2.35,6.03 0,1.86 -0.48,3.51 -1.43,4.97 -0.96,1.46 -2.35,2.64 -4.21,3.56 -1.85,0.91 -4.15,1.38 -6.93,1.38zm-2.61 -31.68l-4.47 0 0 10.92 3.46 0c2.77,0 4.74,-0.53 5.91,-1.59 1.17,-1.06 1.76,-2.42 1.76,-4.1 0,-3.49 -2.22,-5.23 -6.66,-5.23zm0.39 15.55l-4.86 0 0 11.5 5.12 0c2.84,0 4.77,-0.22 5.79,-0.67 1.01,-0.43 1.83,-1.13 2.44,-2.06 0.61,-0.94 0.92,-1.94 0.92,-3.02 0,-1.1 -0.33,-2.11 -0.98,-3.04 -0.65,-0.91 -1.57,-1.6 -2.77,-2.05 -1.2,-0.45 -3.08,-0.67 -5.66,-0.67zm46.58 -20.18l5.22 0 0 36.32 -5.22 0 0 -36.32zm57.72 -0.53c5.61,0 10.28,1.77 14,5.33 3.74,3.55 5.6,8.01 5.6,13.37 0,5.36 -1.88,9.8 -5.64,13.3 -3.77,3.51 -8.52,5.27 -14.24,5.27 -5.48,0 -10.03,-1.76 -13.68,-5.27 -3.65,-3.51 -5.47,-7.91 -5.47,-13.2 0,-5.43 1.84,-9.92 5.5,-13.47 3.67,-3.56 8.32,-5.33 13.92,-5.33zm0.2 4.95c-4.15,0 -7.56,1.3 -10.23,3.9 -2.67,2.6 -4.01,5.92 -4.01,9.96 0,3.92 1.34,7.18 4.02,9.78 2.68,2.6 6.03,3.9 10.06,3.9 4.05,0 7.43,-1.32 10.13,-3.98 2.71,-2.65 4.06,-5.96 4.06,-9.9 0,-3.85 -1.35,-7.08 -4.06,-9.71 -2.71,-2.63 -6.03,-3.94 -9.98,-3.94z"/>
   <g>
    <line class="fil0 str0" x1="638.52" y1="445.63" x2="424.36" y2= "445.63" />
    <line class="fil0 str0" x1="1142.98" y1="445.63" x2="928.83" y2= "445.63" />
   </g>
   <path class="fil2" d="M784.13 495.39l0.12 0c0.36,0 0.68,0.19 0.94,0.55l4.48 -4.27c0.93,-0.89 1.76,-1.33 2.47,-1.33 0.47,0 0.87,0.18 1.2,0.53 0.33,0.36 0.5,0.8 0.5,1.31 0,1.18 -0.67,1.94 -2.03,2.29l-0.57 0.19 -5.71 2.06c0.07,0.22 0.11,0.43 0.11,0.65 0,0.2 -0.04,0.4 -0.11,0.57l6.02 2.27 1.17 0.57c0.29,0.18 0.55,0.44 0.78,0.8 0.22,0.36 0.34,0.67 0.34,0.98 0,0.4 -0.17,0.8 -0.51,1.2 -0.34,0.4 -0.74,0.59 -1.19,0.59 -0.86,0 -1.88,-0.59 -3.04,-1.75l-3.9 -3.9c-0.36,0.36 -0.72,0.54 -1.07,0.54l1.07 5.48c0.15,0.67 0.23,1.47 0.23,2.39 0,1.53 -0.59,2.29 -1.76,2.29 -1.21,0 -1.81,-0.83 -1.81,-2.49 0,-0.47 0.05,-0.92 0.16,-1.35l1.35 -6.32c-0.33,-0.04 -0.67,-0.21 -1.01,-0.54l-4.17 3.89c-1.3,1.17 -2.28,1.76 -2.94,1.76 -0.47,0 -0.88,-0.18 -1.22,-0.52 -0.35,-0.36 -0.52,-0.76 -0.52,-1.23 0,-1.15 1.07,-2.09 3.2,-2.81l5.26 -1.84c-0.07,-0.28 -0.11,-0.48 -0.11,-0.62l0.11 -0.59 -6.02 -2.23c-1.56,-0.55 -2.34,-1.29 -2.34,-2.22 0,-0.5 0.19,-0.95 0.55,-1.34 0.36,-0.4 0.79,-0.59 1.27,-0.59 0.4,0 0.97,0.28 1.7,0.83l0.7 0.54 4.53 4.23c0.29,-0.33 0.63,-0.51 1.01,-0.55l-1.01 -5.32 -0.26 -1.12c-0.09,-0.4 -0.13,-0.79 -0.13,-1.17 0,-1.59 0.6,-2.39 1.81,-2.39 1.17,0 1.76,0.71 1.76,2.13 0,0.51 -0.12,1.31 -0.34,2.44l-1.07 5.43z"/>
   <polygon class="fil3" points="424.36,443.96 637.87,443.96 637.87,447.3 424.36,447.3 "/>
   <polygon class="fil3" points="929.15,443.96 1142.66,443.96 1142.66,447.3 929.15,447.3 "/>
  </g>
 </g>
</svg>
