<?xml version="1.0" encoding="UTF-8"?>
<!DOCTYPE svg PUBLIC "-//W3C//DTD SVG 1.1//EN" "http://www.w3.org/Graphics/SVG/1.1/DTD/svg11.dtd">
<!-- Creator: CorelDRAW 2020 (64 Bit) -->
<svg xmlns="http://www.w3.org/2000/svg" xml:space="preserve" width="70.4909mm" height="160.76mm" version="1.1" style="shape-rendering:geometricPrecision; text-rendering:geometricPrecision; image-rendering:optimizeQuality; fill-rule:evenodd; clip-rule:evenodd"
viewBox="0 0 67.55 154.05"
 xmlns:xlink="http://www.w3.org/1999/xlink"
 xmlns:xodm="http://www.corel.com/coreldraw/odm/2003">
 <defs>
  <style type="text/css">
   <![CDATA[
    .fil1 {fill:none}
    .fil0 {fill:white}
   ]]>
  </style>
 </defs>
 <g id="Camada_x0020_1">
  <metadata id="CorelCorpID_0Corel-Layer"/>
  <path class="fil0" d="M44.12 95.82c1.26,0 2.32,0.55 2.62,1.3l1.73 -0.05c2.25,-0.06 4.55,-0.07 6.79,-0.23 0.64,-0.05 1.45,-0.04 1.32,0.85 -0.11,0.62 -0.5,0.65 -1.05,0.61 -0.28,-0.02 -0.53,-0.06 -0.81,-0.07 -1.63,-0.09 -3.26,-0.1 -4.89,-0.14l-3.09 -0.09c-0.3,0.75 -1.36,1.3 -2.62,1.3 -1.5,0 -2.71,-0.78 -2.71,-1.74 0,-0.96 1.21,-1.74 2.71,-1.74zm-0.04 -3.38c2.35,0 4.33,1.58 4.93,3.74l-0.4 0c-0.59,-1.94 -2.39,-3.36 -4.53,-3.36 -2.61,0 -4.73,2.12 -4.73,4.73 0,2.61 2.12,4.73 4.73,4.73 2.13,0 3.94,-1.41 4.53,-3.35l0.4 0c-0.6,2.15 -2.58,3.73 -4.93,3.73 -2.83,0 -5.12,-2.29 -5.12,-5.12 0,-2.83 2.29,-5.12 5.12,-5.12z"/>
  <rect class="fil1" x="0" width="67.55" height="154.05"/>
 </g>
</svg>
