<?xml version="1.0" encoding="UTF-8"?>
<!DOCTYPE svg PUBLIC "-//W3C//DTD SVG 1.1//EN" "http://www.w3.org/Graphics/SVG/1.1/DTD/svg11.dtd">
<!-- Creator: CorelDRAW 2020 (64 Bit) -->
<svg xmlns="http://www.w3.org/2000/svg" xml:space="preserve" width="335.288mm" height="21.9604mm" version="1.1" style="shape-rendering:geometricPrecision; text-rendering:geometricPrecision; image-rendering:optimizeQuality; fill-rule:evenodd; clip-rule:evenodd"
viewBox="0 0 1558.05 102.05"
 xmlns:xlink="http://www.w3.org/1999/xlink"
 xmlns:xodm="http://www.corel.com/coreldraw/odm/2003">
 <defs>
  <style type="text/css">
   <![CDATA[
    .fil0 {fill:none}
    .fil2 {fill:white;fill-rule:nonzero}
    .fil1 {fill:url(#id0)}
   ]]>
  </style>
  <linearGradient id="id0" gradientUnits="userSpaceOnUse" x1="678.04" y1="42.23" x2="895.46" y2="42.23">
   <stop offset="0" style="stop-opacity:1; stop-color:#E74529"/>
   <stop offset="1" style="stop-opacity:1; stop-color:#FAA731"/>
  </linearGradient>
 </defs>
 <g id="Camada_x0020_1">
  <metadata id="CorelCorpID_0Corel-Layer"/>
  <rect class="fil0" x="-0" width="1558.05" height="102.05"/>
  <g id="_1572563016144">
   <path class="fil1" d="M699.36 20.9l174.78 0c11.73,0 21.33,9.6 21.33,21.33l0 0c0,11.73 -9.6,21.33 -21.33,21.33l-174.78 0c-11.73,0 -21.33,-9.6 -21.33,-21.33l0 -0c0,-11.73 9.6,-21.33 21.33,-21.33z"/>
   <path class="fil2" d="M718.42 35.78l-5.3 0 0 4.01 4.88 0 0 2.32 -4.88 0 0 5.9 -2.82 0 0 -14.58 8.12 0 0 2.35zm1.8 2.48c0.47,-0.27 1.07,-0.49 1.82,-0.66 0.75,-0.17 1.42,-0.25 2.01,-0.25 2.81,0 4.22,1.43 4.22,4.28l0 6.38 -2.63 0 0 -1.53 -0.05 0c-0.7,1.19 -1.74,1.79 -3.12,1.79 -1,0 -1.8,-0.28 -2.39,-0.84 -0.59,-0.56 -0.88,-1.32 -0.88,-2.27 0,-1.99 1.18,-3.14 3.55,-3.45l2.9 -0.4c0,-1.33 -0.65,-1.99 -1.94,-1.99 -1.23,0 -2.4,0.39 -3.48,1.16l0 -2.2zm3.36 4.99c-1.19,0.15 -1.78,0.68 -1.78,1.59 0,0.41 0.14,0.74 0.43,1 0.28,0.26 0.67,0.39 1.15,0.39 0.66,0 1.2,-0.23 1.63,-0.7 0.43,-0.47 0.64,-1.05 0.64,-1.76l0 -0.79 -2.07 0.27zm15.07 4.35c-0.71,0.4 -1.62,0.62 -2.71,0.66l0 0.65c1.25,0.02 1.88,0.57 1.88,1.64 0,1.34 -1.03,2.01 -3.09,2.01 -0.3,0 -0.57,-0.01 -0.82,-0.04l0 -1.26c0.25,0.04 0.49,0.06 0.72,0.06 0.87,0 1.31,-0.26 1.31,-0.78 0,-0.48 -0.4,-0.72 -1.19,-0.72 -0.07,0 -0.2,0.01 -0.39,0.04l0 -1.72c-1.23,-0.22 -2.2,-0.8 -2.93,-1.74 -0.72,-0.94 -1.08,-2.05 -1.08,-3.34 0,-1.74 0.52,-3.12 1.55,-4.15 1.04,-1.03 2.42,-1.55 4.15,-1.55 1.13,0 1.99,0.16 2.59,0.49l0 2.43c-0.7,-0.51 -1.47,-0.77 -2.32,-0.77 -0.98,0 -1.75,0.31 -2.33,0.92 -0.57,0.62 -0.86,1.43 -0.86,2.44 0,1 0.28,1.8 0.83,2.38 0.55,0.58 1.3,0.87 2.25,0.87 0.84,0 1.65,-0.26 2.42,-0.79l0 2.29zm2.47 -9.34c0.47,-0.27 1.07,-0.49 1.82,-0.66 0.75,-0.17 1.42,-0.25 2.01,-0.25 2.81,0 4.22,1.43 4.22,4.28l0 6.38 -2.63 0 0 -1.53 -0.05 0c-0.7,1.19 -1.74,1.79 -3.12,1.79 -1,0 -1.8,-0.28 -2.39,-0.84 -0.59,-0.56 -0.88,-1.32 -0.88,-2.27 0,-1.99 1.18,-3.14 3.55,-3.45l2.9 -0.4c0,-1.33 -0.65,-1.99 -1.94,-1.99 -1.23,0 -2.4,0.39 -3.48,1.16l0 -2.2zm3.36 4.99c-1.19,0.15 -1.78,0.68 -1.78,1.59 0,0.41 0.14,0.74 0.43,1 0.28,0.26 0.67,0.39 1.15,0.39 0.66,0 1.2,-0.23 1.63,-0.7 0.43,-0.47 0.64,-1.05 0.64,-1.76l0 -0.79 -2.07 0.27zm14.19 2.08c1.03,0.65 2.05,0.97 3.05,0.97 1.29,0 1.94,-0.36 1.94,-1.1 0,-0.51 -0.51,-0.94 -1.53,-1.29 -1.49,-0.5 -2.44,-0.99 -2.84,-1.48 -0.4,-0.49 -0.61,-1.11 -0.61,-1.87 0,-1 0.41,-1.79 1.23,-2.36 0.82,-0.57 1.87,-0.86 3.16,-0.86 0.9,0 1.8,0.14 2.69,0.43l0 2.25c-0.81,-0.48 -1.7,-0.72 -2.66,-0.72 -0.51,0 -0.92,0.09 -1.23,0.29 -0.31,0.19 -0.46,0.45 -0.46,0.76 0,0.52 0.43,0.94 1.3,1.24 0.98,0.35 1.7,0.65 2.17,0.9 0.46,0.24 0.82,0.57 1.08,0.98 0.26,0.42 0.39,0.91 0.39,1.47 0,1.05 -0.42,1.87 -1.26,2.45 -0.84,0.58 -1.95,0.87 -3.33,0.87 -1.16,0 -2.18,-0.19 -3.07,-0.55l0 -2.38zm18.77 -1.75l-6.95 0c0.11,1.77 1.12,2.66 3.01,2.66 1.16,0 2.19,-0.3 3.09,-0.91l0 2.1c-0.96,0.56 -2.2,0.84 -3.71,0.84 -1.62,0 -2.88,-0.47 -3.78,-1.41 -0.9,-0.94 -1.35,-2.25 -1.35,-3.93 0,-1.65 0.48,-2.99 1.45,-4.03 0.97,-1.03 2.18,-1.55 3.63,-1.55 1.45,0 2.59,0.44 3.4,1.34 0.81,0.89 1.22,2.12 1.22,3.67l0 1.22zm-2.6 -1.81c0,-1.65 -0.68,-2.47 -2.04,-2.47 -0.57,0 -1.06,0.22 -1.5,0.67 -0.43,0.45 -0.7,1.05 -0.81,1.8l4.35 0zm14.16 6.24l-2.75 0 0 -1.61 -0.05 0c-0.76,1.24 -1.83,1.86 -3.19,1.86 -2.44,0 -3.65,-1.46 -3.65,-4.4l0 -6.27 2.76 0 0 5.98c0,1.68 0.66,2.52 1.96,2.52 0.64,0 1.16,-0.23 1.56,-0.69 0.41,-0.46 0.61,-1.07 0.61,-1.85l0 -5.97 2.75 0 0 10.41zm13.11 -5.17l0 5.17 -2.82 0 0 -14.58 4.81 0c3.55,0 5.33,1.52 5.33,4.57 0,1.47 -0.54,2.66 -1.61,3.56 -1.07,0.9 -2.42,1.33 -4.05,1.29l-1.66 0zm0 -7.16l0 4.95 1.43 0c1.95,0 2.92,-0.84 2.92,-2.53 0,-1.62 -0.95,-2.42 -2.86,-2.42l-1.49 0zm17.74 7.9l-6.95 0c0.11,1.77 1.12,2.66 3.01,2.66 1.16,0 2.19,-0.3 3.09,-0.91l0 2.1c-0.96,0.56 -2.2,0.84 -3.71,0.84 -1.62,0 -2.88,-0.47 -3.78,-1.41 -0.9,-0.94 -1.35,-2.25 -1.35,-3.93 0,-1.65 0.48,-2.99 1.45,-4.03 0.97,-1.03 2.18,-1.55 3.63,-1.55 1.45,0 2.59,0.44 3.4,1.34 0.81,0.89 1.22,2.12 1.22,3.67l0 1.22zm-2.6 -1.81c0,-1.65 -0.68,-2.47 -2.04,-2.47 -0.57,0 -1.06,0.22 -1.5,0.67 -0.43,0.45 -0.7,1.05 -0.81,1.8l4.35 0zm14.5 6.24l-2.75 0 0 -1.53 -0.05 0c-0.74,1.19 -1.85,1.79 -3.32,1.79 -1.31,0 -2.36,-0.47 -3.14,-1.41 -0.79,-0.94 -1.18,-2.21 -1.18,-3.82 0,-1.71 0.44,-3.08 1.32,-4.12 0.88,-1.04 2.02,-1.56 3.43,-1.56 1.37,0 2.33,0.5 2.89,1.51l0.05 0 0 -6.26 2.75 0 0 15.4zm-2.71 -5.95c0,-0.73 -0.22,-1.34 -0.67,-1.82 -0.45,-0.49 -1.01,-0.73 -1.69,-0.73 -0.79,0 -1.42,0.31 -1.88,0.93 -0.46,0.62 -0.69,1.46 -0.69,2.52 0,1 0.22,1.77 0.67,2.32 0.44,0.55 1.04,0.82 1.79,0.82 0.73,0 1.32,-0.28 1.78,-0.86 0.46,-0.57 0.69,-1.31 0.69,-2.2l0 -0.99zm5.35 -7.88c0,-0.42 0.15,-0.77 0.45,-1.06 0.3,-0.28 0.69,-0.43 1.16,-0.43 0.46,0 0.85,0.14 1.16,0.42 0.31,0.28 0.47,0.64 0.47,1.06 0,0.43 -0.16,0.79 -0.46,1.07 -0.3,0.28 -0.69,0.43 -1.16,0.43 -0.47,0 -0.86,-0.14 -1.16,-0.44 -0.3,-0.29 -0.45,-0.65 -0.45,-1.06zm0.22 13.83l0 -10.41 2.75 0 0 10.41 -2.75 0zm15.41 0l-2.75 0 0 -1.53 -0.05 0c-0.74,1.19 -1.85,1.79 -3.32,1.79 -1.31,0 -2.36,-0.47 -3.14,-1.41 -0.79,-0.94 -1.18,-2.21 -1.18,-3.82 0,-1.71 0.44,-3.08 1.32,-4.12 0.88,-1.04 2.02,-1.56 3.43,-1.56 1.37,0 2.33,0.5 2.89,1.51l0.05 0 0 -6.26 2.75 0 0 15.4zm-2.71 -5.95c0,-0.73 -0.22,-1.34 -0.67,-1.82 -0.45,-0.49 -1.01,-0.73 -1.69,-0.73 -0.79,0 -1.42,0.31 -1.88,0.93 -0.46,0.62 -0.69,1.46 -0.69,2.52 0,1 0.22,1.77 0.67,2.32 0.44,0.55 1.04,0.82 1.79,0.82 0.73,0 1.32,-0.28 1.78,-0.86 0.46,-0.57 0.69,-1.31 0.69,-2.2l0 -0.99zm4.97 0.81c0,-1.7 0.5,-3.05 1.51,-4.03 1,-0.99 2.36,-1.48 4.08,-1.48 1.66,0 2.96,0.48 3.92,1.45 0.96,0.97 1.44,2.26 1.44,3.89 0,1.69 -0.49,3.04 -1.49,4.05 -0.99,1.01 -2.34,1.52 -4.04,1.52 -1.66,0 -2.98,-0.49 -3.96,-1.46 -0.98,-0.97 -1.47,-2.28 -1.47,-3.94zm2.79 -0.04c0,2.18 0.91,3.28 2.72,3.28 1.75,0 2.62,-1.12 2.62,-3.36 0,-2.16 -0.88,-3.25 -2.63,-3.25 -0.86,0 -1.52,0.3 -2,0.89 -0.47,0.59 -0.71,1.4 -0.71,2.44z"/>
  </g>
 </g>
</svg>
