<?xml version="1.0" encoding="UTF-8"?>
<!DOCTYPE svg PUBLIC "-//W3C//DTD SVG 1.1//EN" "http://www.w3.org/Graphics/SVG/1.1/DTD/svg11.dtd">
<!-- Creator: CorelDRAW 2020 (64 Bit) -->
<svg xmlns="http://www.w3.org/2000/svg" xml:space="preserve" width="100.059mm" height="70.6076mm" version="1.1" style="shape-rendering:geometricPrecision; text-rendering:geometricPrecision; image-rendering:optimizeQuality; fill-rule:evenodd; clip-rule:evenodd"
viewBox="0 0 370.52 261.46"
 xmlns:xlink="http://www.w3.org/1999/xlink"
 xmlns:xodm="http://www.corel.com/coreldraw/odm/2003">
 <defs>
  <style type="text/css">
   <![CDATA[
    .fil1 {fill:#373435}
    .fil0 {fill:white}
   ]]>
  </style>
 </defs>
 <g id="Conteúdo_x0020_do_x0020_PowerClip">
  <metadata id="CorelCorpID_0Corel-Layer"/>
  <path class="fil0" d="M370.52 0l0 200.85c0,33.34 -27.27,60.61 -60.61,60.61l-249.3 0c-33.34,0 -60.61,-27.27 -60.61,-60.61l0 -200.85 370.52 0z"/>
  <g id="_2725409667472">
   <path class="fil1" d="M161.36 95.1c0,4.94 0.67,8.29 3.01,12.18 0.98,1.63 2.77,4.07 4.2,5.17 2.68,2.05 1.75,1.76 5.74,3.76 5.11,2.56 12.94,2.57 18.07,0.04 1.22,-0.6 2.33,-1.18 3.42,-1.9 0.56,-0.37 1,-0.74 1.52,-1.14l1.49 -1.3c2.02,-2.04 2.65,-3.01 3.96,-5.28 0.18,-0.3 0.33,-0.54 0.5,-0.89 3.41,-6.98 2.74,-16.35 -1.92,-22.52 -1.92,-2.54 -4.2,-4.87 -7.07,-6.35 -0.68,-0.35 -1.05,-0.61 -1.85,-0.94 -1.67,-0.69 -1.98,-0.96 -4.07,-1.37 -1.82,-0.36 -4.09,-0.7 -6,-0.49 -0.45,0.05 -0.88,-0.01 -1.34,0.05 -0.69,0.09 -1.53,0.23 -2.28,0.38 -1.49,0.3 -2.84,0.72 -4.13,1.32 -0.35,0.16 -0.55,0.21 -0.89,0.38 -0.4,0.19 -0.51,0.3 -0.88,0.51 -0.63,0.34 -1.19,0.65 -1.76,1.03l-2.28 1.77c-1.31,1.15 -1.57,1.57 -2.6,2.72 -0.25,0.28 -0.38,0.47 -0.61,0.78 -2.39,3.19 -4.23,7.95 -4.23,12.1z"/>
   <path class="fil1" d="M178.7 139.16l0.63 0 0 0.13 -0.63 0 0 -0.13zm0 -3.29l0.63 0 0 0.13 -0.63 0 0 -0.13zm6.71 -3.54l-0.51 0c0.24,-0.15 -0.28,-0.14 0.25,-0.1 0.27,0.02 0.11,0.01 0.25,0.1zm-28.11 -11.27c-2.23,0 -4.06,-0.13 -6.33,-0.13l0 0.13c1.08,0 2.24,0.26 3.29,0.38 1.12,0.12 2.23,0.26 3.4,0.4 7.13,0.9 13.78,1.12 21.29,1.12l0 0.13c-2.43,0 -4.82,0.62 -7.22,0.76 -2.59,0.14 -5.12,0.4 -7.72,0.38 -1.02,-0.01 -1.51,0.13 -2.53,0.13l-10.51 -0c0.63,0 1.08,0.11 1.7,0.2 0.65,0.09 1.06,0.12 1.7,0.2 1.09,0.13 2.23,0.25 3.42,0.38 5.33,0.6 10.94,0.92 16.36,0.99 0.73,0.01 0.95,0.14 1.76,0.13 1.39,-0 2.36,-0.13 3.8,-0.13l0 0.13c-1.42,0 -5.13,0.5 -6.64,0.71 -1.56,0.22 -4.28,0.22 -5.21,0.36 -0.98,0.15 -4.28,0.2 -5.37,0.2 -1.18,0 -2.49,-0.1 -3.6,0.07 -1.19,0.18 -2.25,-0.08 -3.49,-0.07 -1.27,0 -2.53,0 -3.8,0l0 0.25c1.14,0 5.31,0.56 6.62,0.72 3.05,0.39 9.06,0.75 12,0.79 0.73,0.01 0.95,0.14 1.77,0.13 2.49,-0.01 4.98,-0 7.47,-0l-12.91 1.27c-0.49,0.01 -1.03,-0.03 -1.52,-0.01l-10.38 0.25c-0.81,0 -1.5,-0.25 -2.03,0 0.25,0.34 0.46,0.34 1.01,0.38 0.6,0.04 0.76,0.09 1.39,0.13 2.64,0.18 5.42,0.69 8.11,0.76 0.65,0.02 2.03,0.1 2.71,0.2 0.49,0.07 0.84,0.04 1.34,0.05 0.68,0.01 0.74,0.12 1.38,0.14l8.49 0.12c1.23,0 1.95,-0.13 3.17,-0.13l0 0.13c-1.19,0 -2.04,0.16 -3.15,0.26l-12.67 1.13c-0.54,0.02 -1.11,-0.02 -1.66,-0.01 -0.72,0.01 -0.88,0.13 -1.64,0.14 -2.32,0 -4.65,-0 -6.97,-0 0.19,0.81 0.87,0.57 2.43,0.74 1.79,0.19 4.35,0.5 6.06,0.53 0.88,0.01 2.19,0.18 3.04,0.25l6.2 0.26c2.19,-0.01 4.39,-0 6.58,-0l0 0.13c-1.8,0 -3.6,0.37 -5.35,0.6 -1.82,0.23 -3.65,0.33 -5.43,0.53l-8.46 0.4c-1.01,-0 -2.03,0 -3.04,0 0.69,1.3 2.14,0.74 4.85,1.1 1.84,0.25 3.81,0.19 5.68,0.4l5.81 0.14c2.03,0 4.05,0 6.08,0l0 0.13c-1.44,0 -5.49,0.61 -7.14,0.83 -2.34,0.32 -9.96,0.81 -12.61,0.81 0.78,1.16 1.45,1.1 2.79,1.14 0.63,0.02 0.63,0.12 1.26,0.13l15.83 0.38c-1.58,0 -7.15,1.05 -10,1.14l-6.33 0.51c0.15,0.58 1.43,1.34 2.02,1.4 0.53,0.05 0.67,0.1 1.14,0.12 1.47,0.08 3.19,0 4.69,-0 1.52,-0 2.9,0.12 4.56,0.13 0.88,0 1.23,-0.14 2.15,-0.13 0.8,0 1.61,0 2.41,0l0 0.13c-1.16,0 -7.38,0.96 -9.36,1.15 -0.47,0.05 -2.92,0.24 -3.18,0.37 0.41,0.56 3.16,1.9 3.92,1.9l4.31 0c0.73,0 0.93,-0.1 1.52,-0.13l3.29 0c-1.22,0 -2.34,0.33 -3.44,0.49 -1.15,0.16 -2.48,0.29 -3.52,0.53 0.51,0.69 5.5,1.33 6.32,1.4 2.47,0.24 4.91,0.29 7.38,0.01 4.19,-0.48 7.99,-1.17 11.64,-3.05 0.44,-0.23 0.37,-0.04 0.5,-0.52 -1.22,0 -2.08,0.13 -3.16,0.13 -1.1,-0.01 -2.2,-0 -3.29,-0 -2.11,-0 -4.26,0.25 -6.33,0.25l0 -0.13c1.23,0 10.51,-1.36 13.93,-1.52 1.34,-0.06 2.29,-0.36 3.21,-1.22 0.35,-0.32 0.19,-0.01 0.33,-0.42 -1.05,0 -1.59,-0.13 -2.66,-0.13l-8.61 0c-2.05,0 -3.65,0.13 -5.7,0.13l0 -0.13c2.68,0 7.32,-1.12 10.38,-1.14 0.81,-0.01 1.94,-0.05 2.77,-0.14 1.67,-0.19 5.9,-0.21 6.51,-0.7 0.3,-0.24 0.53,-0.5 0.72,-0.8 -0.72,-0.17 -3.82,-0.26 -4.81,-0.25 -0.97,0.01 -1.41,-0.13 -2.4,-0.13l-12.79 -0.13c1.9,0 3.66,-0.47 5.57,-0.63 1.93,-0.17 3.77,-0.41 5.82,-0.51 0.79,-0.04 1.99,-0.21 2.79,-0.25 0.5,-0.03 1,0.04 1.5,-0.02 0.51,-0.06 0.84,-0.11 1.54,-0.11 1.2,0.01 1.88,-0.13 3.04,-0.13 1.35,0.01 2.01,0.26 2.28,-0.89l-8.62 -0.5c-1.46,-0.12 -3.13,0.08 -4.46,-0.1 -2.34,-0.32 -7.86,0.09 -10.47,0.09l12.67 -1.39c2.28,-0.19 4.36,-0.13 6.7,-0.26l5.07 -0.12c0.79,0.01 1.07,0.1 1.13,-0.64l-7.47 -0.64c-0.54,-0.02 -1.08,0.04 -1.61,-0.03 -1.3,-0.18 -8.09,-0.22 -9.66,-0.22 -2.19,0 -4.39,0 -6.58,0l0 -0.13c1.76,0 7.38,-0.82 9.76,-1.01l15.82 -0.51c0.87,0.01 1.33,0.24 1.39,-0.51 -0.5,0 -0.91,-0.09 -1.51,-0.14 -0.42,-0.03 -1.09,-0.1 -1.6,-0.17l-9.93 -0.71c-4.54,-0.06 -9.22,-0.12 -13.93,-0.12l0 -0.13c2.03,0 3.96,-0.4 5.97,-0.61 2.07,-0.22 4.2,-0.28 6.2,-0.51 1.8,-0.2 11.56,-0.4 13.02,-0.4 1.16,0 1.84,0.13 3.04,0.13l0 -0.38 -8.07 -0.79c-4.58,-0.6 -14.12,-0.72 -18.77,-0.72l0 -0.13c2.51,0 6.9,-0.81 10.01,-0.88 0.99,-0.02 2.41,-0.25 3.41,-0.26l14.44 -0.12c-0.33,-0.46 -0.66,-0.24 -1.43,-0.34 -0.66,-0.09 -1.04,-0.12 -1.7,-0.2 -4.39,-0.59 -9.04,-0.99 -13.46,-1.23l-3.55 -0.13c-2.49,0.01 -4.98,0 -7.47,0l0 -0.13c0.8,0 1.33,-0.1 2.08,-0.2 2.45,-0.33 5.01,-0.51 7.41,-0.69 5.62,-0.43 10.77,-0.37 16.47,-0.37 0.92,0 1.27,0.13 2.15,0.13 -0.25,-0.21 -0.15,-0.17 -0.52,-0.24 -2.15,-0.42 -6.37,-0.9 -8.47,-1.02 -2.06,-0.13 -4.17,-0.49 -6.33,-0.5 -0.71,-0 -0.8,-0.13 -1.51,-0.13 -0.65,-0.01 -1.09,0.02 -1.7,-0.07 -1.08,-0.16 -2.25,0.01 -3.37,-0.05l-3.42 -0.13c-1.01,0 -1.58,0.13 -2.66,0.13l0 -0.13c2.06,0 7.17,-1.02 10.13,-1.01l3.56 -0.24c1.11,-0.12 2.51,0.04 3.65,-0.02l7.22 -0c1.4,0 2.38,0.13 3.67,0.13 -0.59,-0.37 -2.66,-0.52 -3.44,-0.61 -7.1,-0.86 -13.49,-0.74 -20.62,-0.78l-6.95 0.26c-1.48,0.12 -2.98,0.16 -4.57,0.25 -0.55,0.03 -0.46,0.1 -1.01,0.13 -0.41,0.02 -0.86,-0.02 -1.27,-0 -0.55,0.03 -0.46,0.1 -1.01,0.13l-8.11 0.37c-0.79,0.01 -1.32,0.14 -2.27,0.13 -0.95,-0 -1.49,0.12 -2.27,0.13 -0.8,0.01 -1.61,-0 -2.41,-0.01 -0.96,-0 -1.43,0.13 -2.27,0.13 -0.85,0 -1.69,-0 -2.54,-0z"/>
   <path class="fil1" d="M79.18 200.19c-0.28,-1.22 -0.71,-2.28 -1.09,-3.47 -0.39,-1.2 -0.69,-2.36 -1.04,-3.51 -0.73,-2.37 -1.55,-4.57 -2.24,-7 -1.03,-3.62 -2.22,-6.86 -3.26,-10.41 -0.2,-0.68 -0.32,-1.1 -0.54,-1.74 -0.12,-0.35 -0.19,-0.58 -0.27,-0.87 -0.1,-0.38 -0.12,-0.73 -0.54,-0.73l-4.18 0c0,1.96 -0.46,3.49 -0.86,5.48 -0.32,1.6 -0.62,3.07 -0.93,4.64l-5.25 25.51c-0.26,1.28 -0.7,2.1 0.45,2.1 0.67,0 1.08,-3.34 1.19,-4 0.27,-1.5 0.54,-2.91 0.84,-4.35l5.23 -25.79c0.01,-0.03 0.03,-0.07 0.04,-0.09 0.01,-0.02 0.02,-0.06 0.04,-0.09 0.17,0.73 0.41,1.48 0.62,2.17 0.22,0.72 0.42,1.46 0.63,2.15 0.46,1.47 0.87,2.86 1.36,4.34 1.74,5.18 3.52,12.13 5.25,17.28l1.94 6.42c0.21,0.76 0.41,1.58 0.96,1.95 0.67,-0.16 0.81,-0.7 1.04,-1.62 0.17,-0.67 0.34,-1.38 0.55,-2.11 1.15,-4.03 2.07,-8.6 3.29,-12.92l3.8 -15.07c0.25,-0.86 0.31,-1.83 0.69,-2.1 0,0.7 5.27,22.98 5.85,25.3l2 8.51 4.81 0 -3.27 -14.33c-0.38,-1.62 -0.78,-3.2 -1.17,-4.78 -0.77,-3.18 -1.39,-6.36 -2.2,-9.58 -0.4,-1.59 -0.78,-3.08 -1.14,-4.68l-0.81 -3.62c-0.31,-1.32 0.31,-0.99 -4.59,-0.99 -0.64,0 -0.32,1.09 -0.39,1.76l-5.84 22.78c-0.11,0.43 -0.75,3.1 -0.99,3.44z"/>
   <path class="fil1" d="M140.72 209.44c0,0.08 0.2,1.26 1.52,0.38l0 -34.57c0.68,0.46 3.2,3.51 4.08,4.4 0.36,0.37 0.75,0.69 1.07,1.08l17.42 18.92c0.32,0.38 0.71,0.73 1.07,1.08l5.08 5.56c0.57,0.72 3.61,3.81 4.32,4.29 0.15,-0.31 0.25,-0.55 0.25,-1.01l0 -36.47c0,-1.22 -1,-0.85 -1.39,-0.76 -0.31,1.33 -0.13,12.85 -0.13,15.19 0,5.15 0,10.3 0,15.45 -0.76,-0.51 -7.67,-8.24 -8.96,-9.53 -0.67,-0.67 -1.18,-1.27 -1.84,-1.96 -1.86,-1.93 -4.47,-5 -6.27,-6.78l-2.66 -2.91c-1.81,-1.8 -3.64,-3.99 -5.45,-5.82 -0.57,-0.58 -3.27,-3.77 -3.7,-3.77l-4.43 0 0 37.23z"/>
   <path class="fil1" d="M222.13 202.09c0.11,-0.49 0.38,-0.97 0.58,-1.45 0.24,-0.57 0.4,-0.96 0.63,-1.52 0.78,-1.86 8.5,-20.4 8.54,-20.84 0.55,0.4 4.77,10.03 5.57,11.65 0.47,0.95 0.92,1.96 1.4,2.91l2.74 5.87c0.26,0.52 0.43,0.99 0.67,1.48 0.31,0.61 0.63,1.25 0.63,1.9 0,0.64 -1.37,1.01 -2.03,1.01 -1.68,0 -3.36,-0.57 -4.74,-0.96 -5.57,-1.59 -5.73,-2.41 -11.75,-0.71 -0.59,0.17 -1.8,0.44 -2.25,0.66zm-4.56 8.23c1.13,0 1.28,-1.14 1.65,-1.9 2.12,-4.37 1.82,-6.71 8.08,-5.17 5.7,1.4 8.31,3.34 14.73,0.75 0.47,-0.19 1.2,-0.55 1.63,-0.65l2.62 5.36c1.05,2.11 -0.05,1.6 5.36,1.6 -0.02,-0.77 -4.03,-8.93 -4.43,-9.75l-2.23 -4.86c-1.43,-2.84 -3.08,-6.7 -4.52,-9.66l-6.79 -14.6c-0.38,0.28 -0.39,0.56 -0.6,1.05 -0.18,0.43 -0.35,0.85 -0.54,1.23l-7.3 17.14c-1.46,3.27 -2.73,6.48 -4.18,9.75 -0.73,1.64 -1.32,3.34 -2.07,4.9 -0.18,0.36 -2.43,4.81 -1.39,4.81z"/>
   <path class="fil1" d="M278.6 202.09l1.22 -2.96c0.37,-1.04 0.79,-1.96 1.22,-2.96l4.87 -11.85c0.39,-0.91 2.39,-5.43 2.44,-6.04l0.25 0c0.08,0.37 0.46,1.13 0.64,1.52l2.07 4.39c1.24,2.46 2.87,6.41 4.09,8.82l2.75 5.86c1.25,2.59 1.93,3.36 0.56,3.94 -2.45,1.04 -7.41,-1.21 -9.97,-1.87 -4.69,-1.21 -5.89,0.15 -10.13,1.14zm-4.56 8.23c0.98,0 1.24,-0.83 1.66,-1.88 0.37,-0.9 1.8,-4.27 2.42,-4.8 3.18,-2.68 9.61,1.61 13.89,1.61 5.2,0 7.05,-1.8 8.23,-1.9 0.1,0.44 0.56,1.37 0.76,1.77l1.69 3.38c0.32,0.63 0.54,1.23 0.84,1.81l4.68 0c-1.41,-2.95 -3.07,-6.92 -4.47,-9.71l-3.42 -7.22c-1.39,-2.89 -3.11,-6.96 -4.51,-9.8l-2.32 -4.9c-0.38,-0.89 -0.72,-1.58 -1.1,-2.44 -0.19,-0.43 -2.06,-4.56 -2.4,-4.81l-12.45 29.21c-0.76,1.62 -1.44,3.25 -2.09,4.87l-1.58 3.61c-0.16,0.35 -0.32,1.18 0.17,1.18z"/>
   <path class="fil1" d="M107.04 202.09c0.2,-0.84 6,-14.63 6.67,-16.37l2.5 -5.99c0.22,-0.55 0.45,-1.01 0.58,-1.57l2.79 5.82c1.52,3.03 3.31,7.33 4.81,10.38 0.44,0.88 3.42,7.04 3.42,7.47 0,3.05 -9.14,-0.48 -10.76,-0.89 -3.58,-0.9 -4.81,-0.45 -8.34,0.65 -0.43,0.13 -1.29,0.31 -1.66,0.49zm-4.94 7.72c0,0.44 0.86,1.43 2.01,-1.41 0.42,-1.04 1.79,-4.34 2.42,-4.8 3.49,-2.58 9.28,1.65 14.06,1.65 4.69,0 6.07,-1.45 7.98,-1.9l3.42 6.96 4.56 0c-0.21,-0.9 -8.37,-18.04 -8.95,-19.41l-1.13 -2.41c-1.15,-2.27 -2.27,-5.06 -3.38,-7.26 -0.43,-0.85 -0.72,-1.54 -1.14,-2.41l-2.83 -6.04c-0.17,-0.36 -0.47,-1.02 -0.55,-1.35l-13.48 31.1c-0.35,0.85 -0.68,1.54 -1.03,2.39 -0.37,0.87 -0.63,1.56 -0.99,2.43 -0.23,0.55 -0.96,1.91 -0.96,2.46z"/>
   <path class="fil1" d="M181.23 189.94c0,6.29 1.53,10.28 4.97,14.15 0.21,0.24 0.19,0.26 0.39,0.5 1.38,1.66 4.23,3.49 6.22,4.29 6.38,2.57 12.1,2.08 18.18,-1.09 0.84,-0.44 4.3,-2.37 4.3,-3.29l0 -12.16c0,-0.29 -0.09,-0.38 -0.38,-0.38 -4.9,0 -4.33,-0.35 -4.31,1.26l0 11.65c0.01,1.57 -0.05,1.56 -1.06,2.23 -1.51,1 -3.01,1.48 -4.8,1.79 -5.82,0.98 -11.5,-0.7 -15.11,-5.46 -2.43,-3.21 -3.6,-8.13 -3.6,-12.23 0,-4.59 1.78,-10.28 3.9,-12.69 0.34,-0.38 0.57,-0.76 0.95,-1.07l2.34 -1.84c1.43,-0.9 2.61,-1.56 4.36,-1.97 3.93,-0.93 7.77,-0.21 11.06,1.79 1.14,0.69 1.37,1.34 1.95,1.34 0.48,0 1.37,-1.03 0.18,-1.83 -1.38,-0.93 -1.62,-1.03 -3.24,-1.7 -1.3,-0.54 -2.36,-0.81 -3.76,-1.05 -4.39,-0.75 -10.56,0.85 -14.23,3.16 -0.38,0.24 -0.59,0.43 -0.96,0.68 -1.16,0.79 -1.6,1.31 -2.59,2.35 -0.3,0.31 -0.46,0.56 -0.75,0.89 -0.24,0.27 -0.54,0.65 -0.73,0.91 -0.43,0.59 -0.81,1.28 -1.21,1.95 -1.28,2.16 -2.08,5.05 -2.08,7.8z"/>
   <path class="fil1" d="M246.69 172.84c0.25,0.37 0.52,0.51 1.14,0.51l11.9 0 0 36.85 4.56 0 0 -36.47c0,-0.63 1.81,-0.38 3.04,-0.38l7.09 0c1.19,0 3.04,0.35 3.04,-0.63 0,-0.3 -0.21,-0.51 -0.51,-0.51l-29.37 0c-0.54,0 -0.77,0.2 -0.89,0.63z"/>
   <path class="fil1" d="M244.41 234.25l1.9 0 0.25 -3.93c0.04,-0.44 -0,-0.95 0,-1.39 0.01,-0.65 0.1,-0.7 0.13,-1.26l0.33 -3.5 2.56 8.83c0.41,1.26 0.1,1.12 1.66,1.12 0.49,0 0.51,-0.68 0.65,-1.12l1.3 -4.01c0.37,-0.95 0.55,-1.67 0.88,-2.67l0.84 -2.71c0,1.17 0.02,4.35 0.18,5.39l0.19 3.98c0.01,0.66 0.12,0.71 0.13,1.26l2.03 0 -0.75 -11.78c-0.13,-1.72 0.69,-1.51 -2.41,-1.51 -0.49,0 -0.77,1.56 -1,2.3 -0.81,2.64 -1.45,4.23 -2.24,7.13 -0.17,0.62 0.1,0.27 -0.31,0.57 -0.03,-1.51 -2.55,-8.44 -2.91,-10 -3.61,0 -2.39,-1.04 -2.92,5.44 -0.2,2.49 -0.5,5.22 -0.5,7.86z"/>
   <path class="fil1" d="M152.24 230.71c0,-0.79 -0.07,-1.11 0.43,-1.85 0.23,-0.33 0.43,-0.58 0.84,-0.68 0.46,0.31 1.24,1.39 1.68,1.87 0.47,0.5 1.44,1.49 1.49,2.06 -0.48,0.13 -0.37,0.29 -0.9,0.5 -1.93,0.75 -3.53,-0.34 -3.53,-1.89zm2.02 -4.69c-2.56,-3.82 1.9,-5.07 1.9,-2.28 0,1.03 -1.07,2.09 -1.9,2.28zm-2.79 -1.9c0,1.05 0.64,2.04 1.14,2.79 -0.97,0.26 -2.41,2.03 -2.41,3.29 0,1.19 0.04,2.24 0.93,3.12 0.16,0.16 0.67,0.53 0.88,0.64 1.57,0.8 3.34,0.58 4.82,-0.17 0.58,-0.29 0.54,-0.4 0.97,-0.68 1,1.5 1.48,1.14 3.42,1.14 -0.58,-0.86 -1.45,-1.54 -2.03,-2.41 0.21,-0.4 0.42,-0.66 0.63,-1.02 0.53,-0.9 1.12,-2.92 1.14,-3.92l-1.9 0c0,1.27 -0.57,2.7 -1.01,3.55 -0.48,-0.32 -2.49,-2.86 -2.79,-3.29 0.98,-0.26 2.66,-1.71 2.66,-3.17l0 -0.63c0,-1.31 -1.22,-2.53 -2.53,-2.53 -1.56,0 -3,0.33 -3.63,1.95 -0.1,0.25 -0.3,1.08 -0.3,1.35z"/>
   <path class="fil1" d="M221.62 229.95c0,-1.52 0.19,-3.8 2.28,-3.8 2.42,0 2.03,2.8 2.03,4.43 0,2.93 -4.3,2.97 -4.3,-0.63zm4.3 -4.43c-0.79,-0.53 -0.72,-0.92 -2.13,-1.04 -4.97,-0.44 -5.68,7.76 -2.12,9.59 0.77,0.39 1.62,0.5 2.55,0.26 0.49,-0.13 0.75,-0.27 1.12,-0.53 0.53,-0.36 0.46,-0.54 0.83,-0.82 0,0.67 0.01,0.75 0.13,1.27l1.77 0 0 -13.93c-2.73,0 -2.15,-1 -2.15,5.19z"/>
   <path class="fil1" d="M93.11 227.16c0,2.72 0.41,4.98 2.79,6.45 0.83,0.51 1.99,0.76 3.19,0.88 0.7,0.07 2.65,-0.23 3.4,-0.62 -0.13,-0.55 -0.26,-1.11 -0.38,-1.65 -1.82,0.43 -0.73,0.38 -2.91,0.38 -5.25,0 -5.2,-10 0.13,-10 2.23,0 1.84,0.3 2.79,0.38 0.12,-0.5 0.34,-1.13 0.38,-1.65 -2.13,-1.13 -7.23,-0.74 -8.81,3.22 -0.27,0.67 -0.56,1.74 -0.56,2.61z"/>
   <path class="fil1" d="M202.38 232.86c-3.1,0 -3.06,-6.84 0,-6.84 3,0 3.02,6.84 0,6.84zm-4.43 -3.8c0,2.25 0.31,4.06 2.74,5.11 2.59,1.12 6.12,-0.73 6.12,-4.47 0,-3 -1.43,-5.27 -4.41,-5.23 -2.61,0.03 -4.45,2 -4.45,4.6z"/>
   <path class="fil1" d="M234.41 232.86c-3.08,0 -3.06,-6.84 0,-6.84 2.98,0 3.05,6.84 0,6.84zm-4.43 -4.05c0,1.29 -0.11,2.02 0.46,3.21 0.36,0.74 0.42,0.78 0.96,1.32 2.34,2.3 7.44,1.14 7.44,-3.9 0,-5.36 -5.21,-6.01 -7.38,-3.83 -0.75,0.75 -1.48,1.76 -1.48,3.2z"/>
   <path class="fil1" d="M181.74 225.01l0 4.94c0,2.04 0.42,3.55 1.85,4.23 1.56,0.74 3.13,0.07 4.23,-1.19 0,1.46 -0.34,1.27 1.9,1.27l0 -9.24c0,-0.58 -0.71,-0.38 -2.15,-0.38l0 5.95c0,2.39 -3.67,3.48 -3.67,-0.51l0 -5.44c-1.44,0 -2.15,-0.2 -2.15,0.38z"/>
   <path class="fil1" d="M121.6 225.9c0,-1.46 0.34,-1.27 -1.9,-1.27l0.13 9.62 2.03 0 0 -5.83c0,-2.47 3.8,-3.71 3.8,0.63l0 5.19 2.03 0 0 -6.08c0,-1.84 -1,-3.67 -2.79,-3.67 -2.51,0 -1.92,0.47 -3.29,1.39z"/>
   <path class="fil1" d="M133.5 226.02l0.51 0c1.06,0 1.65,1.28 1.65,2.41l-4.05 0c0.08,-1.02 0.82,-2.41 1.9,-2.41zm-3.92 2.91c0,2.02 0.13,4.07 2.38,5.09 1.45,0.65 3.8,0.53 5.21,-0.15 -0.03,-0.35 -0.26,-1.27 -0.38,-1.52 -1.76,0.84 -5.19,0.9 -5.19,-2.41l6.08 0 0 -1.14c0,-2.48 -1.55,-4.51 -3.99,-4.36 -2.34,0.15 -4.12,2.11 -4.12,4.48z"/>
   <path class="fil1" d="M107.04 232.86c-1.8,0 -2.29,-2.95 0.9,-3.29 1.16,-0.12 1,-0.4 1,1.64 0,0.91 -0.92,1.65 -1.9,1.65zm-2.79 -7.6c0.04,0.54 0.26,0.89 0.38,1.39 0.57,-0.13 4.3,-2.04 4.3,1.39 -2.4,0 -5.32,0.85 -5.32,3.17 0,1.59 0.28,2.74 2.16,3.16 0.63,0.14 1.26,0.08 1.88,-0.14 0.61,-0.22 0.92,-0.55 1.4,-0.88 0.18,0.33 0.13,0.34 0.13,0.89l1.9 0c0,-0.75 -0.13,-1.14 -0.13,-2.03 0.01,-1.75 0.19,-5.07 -0.43,-6.16 -1.23,-2.17 -4.23,-1.89 -6.28,-0.81z"/>
   <path class="fil1" d="M262.39 232.86c-2,0 -2.04,-3.29 1.14,-3.29l0.76 0c0,1.29 0.29,3.29 -1.9,3.29zm-2.79 -7.6c0.12,0.51 0.34,0.86 0.38,1.39 0.59,-0.14 4.3,-2.04 4.3,1.39 -6.69,0 -6.35,5.61 -3.16,6.33 0.67,0.15 1.25,0.09 1.88,-0.14 1.12,-0.4 0.94,-0.71 1.53,-0.87l0 0.89 1.9 0c0,-0.88 -0.12,-1.27 -0.13,-2.02 -0.05,-3.88 0.85,-7.44 -3.25,-7.77 -1.34,-0.11 -2.42,0.25 -3.46,0.8z"/>
   <path class="fil1" d="M166.55 234.25l2.03 0 0 -5.45c0,-0.29 0.09,-0.38 0.38,-0.38l4.18 0 0 -1.65 -4.18 0c-0.29,0 -0.38,-0.09 -0.38,-0.38 0,-4.44 -0.61,-3.67 2.41,-3.67 2.95,0 2.53,0.43 2.53,-1.77l-6.96 0 0 13.3z"/>
   <path class="fil1" d="M192.5 223.24l0 1.39 -1.27 0 0 1.65 1.27 0 0 4.81c0,2 0.62,3.23 2.56,3.39 0.48,0.04 1.26,-0.18 1.74,-0.22 0,-0.77 -0.13,-0.92 -0.13,-1.65 -0.15,0.01 -2.03,0.55 -2.03,-1.01l0 -5.32c2.64,0 2.28,0.3 2.28,-1.27 0,-0.59 -0.78,-0.38 -2.28,-0.38l0 -2.28c-0.46,0.04 -2.15,0.38 -2.15,0.89z"/>
   <path class="fil1" d="M141.6 232.86c-0.78,0 -1.76,-0.36 -2.28,-0.63 -0.35,1.48 -1.06,1.82 1.38,2.16 1.29,0.18 2.83,0.01 3.71,-0.99 1.34,-1.51 0.96,-3.68 -1.72,-4.81 -3.17,-1.33 -1.16,-3.5 1.55,-2.06 0.17,-0.35 0.41,-1.1 0.51,-1.52 -2.36,-1.25 -6.07,-0.35 -5.58,2.79 0.11,0.72 0.37,0.94 0.8,1.36 1.14,1.11 1.81,0.83 2.61,1.57 0.89,0.82 0.53,2.13 -0.99,2.13z"/>
   <path class="fil1" d="M208.33 227.29c0,3.06 3.93,2.42 3.93,4.43 0,1.76 -2.54,1.1 -3.67,0.51 -0.22,0.45 -0.38,1.1 -0.51,1.65 0.69,0.16 0.51,0.32 1.89,0.52 0.71,0.1 1.31,0.1 2.08,-0.09 2.8,-0.69 3.04,-4.14 0.5,-5.41 -1.19,-0.6 -2.2,-0.83 -2.2,-1.73 0,-2.09 3.13,-0.64 3.16,-0.63 0.14,-0.6 0.38,-0.9 0.38,-1.65 -0.45,-0.04 -2.06,-0.83 -3.63,-0.21 -1.01,0.4 -1.95,1.29 -1.95,2.61z"/>
   <path class="fil1" d="M115.27 226.15c0,-1.74 0.36,-1.52 -1.9,-1.52l0 9.62 2.15 0c0,-1.81 -0.27,-5.56 0.43,-6.79 0.61,-1.08 1.37,-0.93 2.36,-0.93l0 -2.03c-2.18,0 -1.93,0.37 -3.04,1.65z"/>
   <path class="fil1" d="M270.62 226.15c0,-1.74 0.36,-1.52 -1.9,-1.52 0,1.79 0.13,3.13 0.13,4.94l0 4.69 2.03 0 0 -4.56c0,-2.84 1.05,-3.17 2.79,-3.17l0 -2.03c-0.91,0 -1.43,-0.07 -2.19,0.6 -0.16,0.14 -0.28,0.29 -0.42,0.47l-0.43 0.58z"/>
   <path class="fil1" d="M177.31 226.28c0,-1.82 0.31,-1.65 -1.52,-1.65 -0.65,0 -0.25,0.66 -0.25,1.27l0 8.36 2.03 0c0,-1.53 -0.24,-5.75 0.43,-6.79 0.67,-1.04 1.46,-0.93 2.36,-0.93l0 -2.03c-2.36,0 -2.03,0.61 -3.04,1.77z"/>
   <path class="fil1" d="M301.23 177.49c-0.02,-0.08 0.01,-0.19 0.02,-0.26 0.03,-1.02 0.42,-2.02 1.05,-2.79 0.6,-0.74 1.58,-1.39 2.53,-1.59 0.16,-0.03 0.32,-0.07 0.49,-0.1 0.08,-0.01 0.19,-0.02 0.26,-0.03 0.1,-0.01 0.2,-0 0.28,-0.01 0.16,-0.02 0.89,0.07 1.05,0.11 0.25,0.06 0.45,0.11 0.68,0.2 0.33,0.13 0.49,0.2 0.79,0.39 0.04,0.02 0.05,0.03 0.09,0.06 0.04,0.02 0.06,0.03 0.09,0.06 0.13,0.09 0.39,0.28 0.5,0.39 0.06,0.06 0.1,0.08 0.16,0.14 0.05,0.05 0.1,0.09 0.14,0.14l0.14 0.16c0.05,0.06 0.09,0.1 0.13,0.16 0.03,0.04 0.04,0.05 0.07,0.08 0.02,0.03 0.04,0.06 0.06,0.09 0.09,0.12 0.16,0.23 0.23,0.36 0.38,0.63 0.56,1.29 0.64,2.02 0.01,0.1 0,0.2 0.01,0.28 0.02,0.16 -0.07,0.89 -0.11,1.05 -0.08,0.34 -0.16,0.6 -0.29,0.89 -0.16,0.38 -0.4,0.78 -0.67,1.11l-0.28 0.31c-0.41,0.4 -0.83,0.7 -1.38,0.97 -0.42,0.2 -0.91,0.34 -1.37,0.4 -0.21,0.03 -0.46,0.03 -0.54,0.05 -0.12,0.02 -0.16,-0.01 -0.26,-0.01 -0.11,-0 -0.19,-0.01 -0.28,-0.02 -0.29,-0.02 -0.71,-0.12 -0.98,-0.2 -0.08,-0.03 -0.14,-0.05 -0.22,-0.08 -0.2,-0.08 -0.43,-0.17 -0.61,-0.28 -0.25,-0.14 -0.49,-0.29 -0.71,-0.47l-0.45 -0.42c-0.48,-0.58 -0.71,-0.86 -1,-1.65 -0.15,-0.4 -0.22,-0.79 -0.26,-1.21 -0.02,-0.15 0.02,-0.08 -0.02,-0.28zm10.61 -0.27l0 0.42c-0.02,0.6 -0.13,1.2 -0.35,1.76 -0.14,0.39 -0.25,0.62 -0.46,0.97 -0.8,1.38 -2.13,2.37 -3.67,2.76 -0.4,0.1 -0.82,0.16 -1.24,0.17l-0.38 0c-0.42,-0.01 -0.85,-0.07 -1.25,-0.18 -0.19,-0.05 -0.38,-0.1 -0.55,-0.17 -0.17,-0.06 -0.33,-0.13 -0.5,-0.21 -0.09,-0.04 -0.16,-0.08 -0.24,-0.12 -0.79,-0.39 -1.6,-1.12 -2.1,-1.84 -0.17,-0.25 -0.41,-0.63 -0.52,-0.91 -0.18,-0.42 -0.25,-0.58 -0.37,-1.05 -0.16,-0.64 -0.17,-0.96 -0.17,-1.61 0,-0.43 0.09,-0.92 0.18,-1.27 0.18,-0.71 0.48,-1.35 0.9,-1.95 0.52,-0.75 1.3,-1.44 2.11,-1.84 0.08,-0.04 0.15,-0.08 0.23,-0.11 1.01,-0.42 1.48,-0.55 2.67,-0.55 0.89,0 2.02,0.34 2.79,0.8 0.74,0.45 1.37,0.99 1.86,1.71 0.17,0.25 0.41,0.63 0.52,0.91 0.07,0.18 0.15,0.33 0.21,0.51 0.2,0.58 0.32,1.18 0.34,1.79z"/>
   <path class="fil1" d="M304.94 176.92c0.04,-0.07 0.02,-1.38 0.02,-1.57 0.79,0 1.59,-0.13 1.59,0.79 0,0.95 -0.86,0.79 -1.61,0.79zm-1.59 3.46l1.56 0c0.04,0 0.05,-0.01 0.05,-0.05l0 -2.3c0.27,0 0.65,-0.02 0.89,0.08 0.43,0.18 0.65,0.77 0.87,1.21l0.17 0.36c0.12,0.24 0.23,0.47 0.35,0.7l1.69 0c-0.01,-0.06 -0.32,-0.67 -0.38,-0.81 -0.13,-0.27 -0.27,-0.54 -0.4,-0.81 -0.14,-0.28 -0.26,-0.52 -0.44,-0.76 -0.07,-0.1 -0.21,-0.24 -0.3,-0.31 -0.08,-0.06 -0.29,-0.19 -0.41,-0.19 0.03,-0.04 0.08,-0.04 0.14,-0.07 0.38,-0.17 0.59,-0.3 0.82,-0.68 0.29,-0.48 0.29,-1.51 -0.18,-1.98 -0.17,-0.17 -0.28,-0.26 -0.52,-0.35 -0.42,-0.17 -0.91,-0.23 -1.49,-0.23l-2.41 0 0 6.2z"/>
  </g>
 </g>
</svg>
