<?xml version="1.0" encoding="UTF-8"?>
<!DOCTYPE svg PUBLIC "-//W3C//DTD SVG 1.1//EN" "http://www.w3.org/Graphics/SVG/1.1/DTD/svg11.dtd">
<!-- Creator: CorelDRAW 2020 (64 Bit) -->
<svg xmlns="http://www.w3.org/2000/svg" xml:space="preserve" width="100.059mm" height="56.4523mm" version="1.1" style="shape-rendering:geometricPrecision; text-rendering:geometricPrecision; image-rendering:optimizeQuality; fill-rule:evenodd; clip-rule:evenodd"
viewBox="0 0 290.76 164.04"
 xmlns:xlink="http://www.w3.org/1999/xlink"
 xmlns:xodm="http://www.corel.com/coreldraw/odm/2003">
 <defs>
  <style type="text/css">
   <![CDATA[
    .fil1 {fill:#373435}
    .fil0 {fill:white}
   ]]>
  </style>
 </defs>
 <g id="Conteúdo_x0020_do_x0020_PowerClip">
  <metadata id="CorelCorpID_0Corel-Layer"/>
  <path class="fil0" d="M290.76 0l0 116.48c0,26.16 -21.4,47.56 -47.56,47.56l-195.63 0c-26.16,0 -47.56,-21.4 -47.56,-47.56l0 -116.48 290.76 0z"/>
  <g id="_2118282348864">
   <path class="fil1" d="M126.62 33.49c0,3.88 0.52,6.5 2.36,9.56 0.77,1.28 2.17,3.19 3.3,4.05 2.1,1.61 1.37,1.38 4.5,2.95 4.01,2.01 10.16,2.02 14.18,0.03 0.96,-0.47 1.83,-0.92 2.68,-1.49 0.44,-0.29 0.79,-0.58 1.19,-0.89l1.17 -1.02c1.58,-1.6 2.08,-2.36 3.11,-4.14 0.14,-0.24 0.26,-0.42 0.4,-0.7 2.68,-5.48 2.15,-12.83 -1.51,-17.68 -1.5,-1.99 -3.3,-3.82 -5.55,-4.98 -0.54,-0.28 -0.82,-0.48 -1.45,-0.74 -1.31,-0.54 -1.55,-0.75 -3.2,-1.08 -1.43,-0.28 -3.21,-0.55 -4.71,-0.39 -0.35,0.04 -0.69,-0.01 -1.05,0.04 -0.54,0.07 -1.2,0.18 -1.79,0.3 -1.17,0.23 -2.23,0.56 -3.24,1.04 -0.27,0.13 -0.43,0.16 -0.7,0.3 -0.31,0.15 -0.4,0.24 -0.69,0.4 -0.49,0.27 -0.93,0.51 -1.38,0.81l-1.79 1.39c-1.02,0.91 -1.23,1.24 -2.04,2.14 -0.19,0.22 -0.3,0.37 -0.48,0.61 -1.88,2.51 -3.32,6.24 -3.32,9.5z"/>
   <path class="fil1" d="M140.23 68.07l0.5 0 0 0.1 -0.5 0 0 -0.1zm0 -2.58l0.5 0 0 0.1 -0.5 0 0 -0.1zm5.27 -2.78l-0.4 0c0.19,-0.12 -0.22,-0.11 0.2,-0.08 0.21,0.01 0.09,0.01 0.2,0.08zm-22.06 -8.84c-1.75,0 -3.18,-0.1 -4.97,-0.1l0 0.1c0.85,0 1.76,0.21 2.58,0.3 0.88,0.1 1.75,0.2 2.66,0.32 5.6,0.7 10.81,0.88 16.71,0.88l0 0.1c-1.9,0 -3.78,0.49 -5.67,0.59 -2.03,0.11 -4.02,0.31 -6.06,0.3 -0.8,-0 -1.18,0.1 -1.99,0.1l-8.25 -0c0.49,0 0.85,0.09 1.33,0.16 0.51,0.07 0.83,0.1 1.33,0.16 0.85,0.11 1.75,0.19 2.68,0.3 4.18,0.47 8.59,0.72 12.84,0.77 0.57,0.01 0.75,0.11 1.38,0.11 1.09,-0 1.85,-0.1 2.98,-0.1l0 0.1c-1.11,0 -4.03,0.39 -5.21,0.55 -1.22,0.17 -3.36,0.17 -4.09,0.28 -0.77,0.12 -3.36,0.16 -4.22,0.16 -0.92,0 -1.95,-0.07 -2.82,0.06 -0.93,0.14 -1.77,-0.06 -2.74,-0.06 -0.99,0 -1.99,0 -2.98,0l0 0.2c0.89,0 4.17,0.44 5.19,0.57 2.4,0.31 7.11,0.59 9.41,0.62 0.57,0.01 0.75,0.11 1.39,0.11 1.95,-0.01 3.91,-0 5.86,-0l-10.13 1c-0.39,0.01 -0.81,-0.02 -1.2,-0l-8.15 0.2c-0.63,0 -1.17,-0.2 -1.59,0 0.2,0.27 0.36,0.27 0.79,0.3 0.47,0.03 0.6,0.07 1.09,0.1 2.07,0.14 4.25,0.54 6.36,0.59 0.51,0.01 1.59,0.08 2.13,0.16 0.38,0.06 0.66,0.03 1.05,0.04 0.54,0 0.58,0.09 1.09,0.11l6.66 0.1c0.97,0 1.53,-0.1 2.48,-0.1l0 0.1c-0.94,0 -1.6,0.12 -2.48,0.21l-9.94 0.89c-0.43,0.01 -0.87,-0.01 -1.3,-0.01 -0.56,0.01 -0.69,0.11 -1.28,0.11 -1.82,0 -3.65,-0 -5.47,-0 0.15,0.64 0.68,0.45 1.91,0.58 1.4,0.15 3.42,0.4 4.75,0.41 0.69,0.01 1.72,0.14 2.39,0.19l4.86 0.21c1.72,-0.01 3.45,-0 5.17,-0l0 0.1c-1.41,0 -2.82,0.29 -4.2,0.47 -1.43,0.18 -2.87,0.26 -4.26,0.41l-6.64 0.31c-0.8,-0 -1.59,0 -2.38,0 0.54,1.02 1.68,0.58 3.8,0.87 1.44,0.19 2.99,0.15 4.46,0.31l4.56 0.11c1.59,0 3.18,0 4.77,0l0 0.1c-1.13,0 -4.31,0.48 -5.61,0.65 -1.83,0.25 -7.81,0.64 -9.89,0.64 0.61,0.91 1.14,0.87 2.19,0.89 0.49,0.01 0.5,0.09 0.99,0.11l12.42 0.3c-1.24,0 -5.61,0.82 -7.85,0.89l-4.97 0.4c0.12,0.45 1.12,1.05 1.59,1.1 0.42,0.04 0.52,0.08 0.9,0.1 1.15,0.06 2.5,0 3.68,-0 1.19,-0 2.28,0.1 3.58,0.1 0.69,0 0.97,-0.11 1.69,-0.1 0.63,0 1.26,0 1.89,0l0 0.1c-0.91,0 -5.79,0.75 -7.34,0.9 -0.37,0.04 -2.29,0.19 -2.49,0.29 0.32,0.44 2.48,1.49 3.08,1.49l3.38 0c0.58,0 0.73,-0.08 1.19,-0.1l2.58 0c-0.96,0 -1.83,0.26 -2.7,0.38 -0.9,0.13 -1.95,0.22 -2.77,0.41 0.4,0.54 4.32,1.04 4.96,1.1 1.94,0.19 3.85,0.23 5.79,0.01 3.29,-0.37 6.27,-0.92 9.13,-2.39 0.35,-0.18 0.29,-0.03 0.39,-0.41 -0.96,0 -1.63,0.11 -2.48,0.1 -0.86,-0 -1.72,-0 -2.58,-0 -1.65,-0 -3.34,0.2 -4.97,0.2l0 -0.1c0.97,0 8.25,-1.07 10.93,-1.19 1.05,-0.05 1.8,-0.29 2.52,-0.96 0.27,-0.25 0.15,-0.01 0.26,-0.33 -0.82,0 -1.25,-0.1 -2.09,-0.1l-6.76 0c-1.61,0 -2.87,0.1 -4.47,0.1l0 -0.1c2.11,0 5.75,-0.88 8.14,-0.9 0.63,-0 1.52,-0.04 2.17,-0.11 1.31,-0.15 4.63,-0.16 5.11,-0.55 0.23,-0.19 0.41,-0.4 0.57,-0.62 -0.57,-0.13 -2.99,-0.2 -3.78,-0.2 -0.76,0 -1.1,-0.11 -1.89,-0.1l-10.04 -0.1c1.49,0 2.88,-0.37 4.37,-0.49 1.52,-0.13 2.96,-0.32 4.57,-0.4 0.62,-0.03 1.57,-0.17 2.19,-0.2 0.39,-0.02 0.79,0.03 1.18,-0.01 0.4,-0.04 0.66,-0.09 1.21,-0.08 0.94,0.01 1.47,-0.1 2.38,-0.1 1.06,0 1.58,0.21 1.79,-0.7l-6.76 -0.39c-1.15,-0.1 -2.45,0.07 -3.5,-0.08 -1.83,-0.25 -6.17,0.07 -8.22,0.07l9.94 -1.09c1.79,-0.15 3.42,-0.1 5.26,-0.2l3.98 -0.09c0.62,0.01 0.84,0.08 0.89,-0.5l-5.86 -0.5c-0.42,-0.01 -0.85,0.03 -1.27,-0.02 -1.02,-0.14 -6.35,-0.17 -7.58,-0.17 -1.72,0 -3.44,0 -5.17,0l0 -0.1c1.38,0 5.79,-0.64 7.66,-0.79l12.42 -0.4c0.68,0.01 1.04,0.19 1.09,-0.4 -0.39,0 -0.72,-0.07 -1.18,-0.11 -0.33,-0.03 -0.86,-0.08 -1.26,-0.13l-7.79 -0.56c-3.56,-0.04 -7.24,-0.1 -10.93,-0.1l0 -0.1c1.59,0 3.11,-0.32 4.69,-0.48 1.63,-0.17 3.3,-0.22 4.87,-0.4 1.41,-0.16 9.07,-0.31 10.22,-0.31 0.91,0 1.45,0.1 2.38,0.1l0 -0.3 -6.33 -0.62c-3.6,-0.47 -11.08,-0.57 -14.73,-0.57l0 -0.1c1.97,0 5.41,-0.64 7.85,-0.69 0.78,-0.02 1.89,-0.2 2.68,-0.2l11.33 -0.1c-0.26,-0.36 -0.52,-0.19 -1.12,-0.27 -0.52,-0.07 -0.81,-0.09 -1.33,-0.16 -3.44,-0.46 -7.09,-0.78 -10.56,-0.96l-2.78 -0.1c-1.95,0 -3.91,0 -5.86,0l0 -0.1c0.63,0 1.04,-0.08 1.63,-0.16 1.92,-0.26 3.93,-0.4 5.81,-0.55 4.41,-0.34 8.45,-0.29 12.92,-0.29 0.72,0 0.99,0.1 1.69,0.1 -0.19,-0.17 -0.12,-0.13 -0.41,-0.19 -1.69,-0.33 -5,-0.7 -6.65,-0.8 -1.62,-0.1 -3.27,-0.38 -4.97,-0.39 -0.55,-0 -0.63,-0.1 -1.19,-0.11 -0.51,-0.01 -0.85,0.02 -1.34,-0.05 -0.85,-0.13 -1.77,0.01 -2.64,-0.04l-2.68 -0.1c-0.79,0 -1.24,0.1 -2.09,0.1l0 -0.1c1.62,0 5.63,-0.8 7.95,-0.79l2.8 -0.19c0.87,-0.1 1.97,0.03 2.87,-0.01l5.66 -0c1.1,0 1.87,0.1 2.88,0.1 -0.46,-0.29 -2.09,-0.4 -2.7,-0.48 -5.57,-0.67 -10.58,-0.58 -16.18,-0.62l-5.46 0.21c-1.16,0.1 -2.34,0.13 -3.58,0.19 -0.43,0.02 -0.36,0.08 -0.79,0.1 -0.32,0.02 -0.67,-0.02 -0.99,-0 -0.43,0.02 -0.36,0.08 -0.79,0.1l-6.36 0.29c-0.62,0.01 -1.04,0.11 -1.78,0.1 -0.75,-0 -1.17,0.1 -1.78,0.1 -0.63,0.01 -1.26,-0 -1.89,-0 -0.75,-0 -1.13,0.1 -1.79,0.1 -0.66,0 -1.33,-0 -1.99,-0z"/>
   <path class="fil1" d="M62.14 115.97c-0.22,-0.96 -0.55,-1.79 -0.86,-2.72 -0.31,-0.94 -0.54,-1.85 -0.82,-2.76 -0.57,-1.86 -1.22,-3.59 -1.76,-5.49 -0.81,-2.84 -1.74,-5.39 -2.56,-8.17 -0.16,-0.53 -0.25,-0.86 -0.42,-1.37 -0.09,-0.28 -0.15,-0.46 -0.21,-0.68 -0.08,-0.3 -0.09,-0.57 -0.42,-0.57l-3.28 0c0,1.54 -0.36,2.74 -0.67,4.3 -0.25,1.25 -0.48,2.41 -0.73,3.64l-4.12 20.02c-0.2,1 -0.55,1.65 0.36,1.65 0.53,0 0.84,-2.62 0.94,-3.14 0.21,-1.17 0.43,-2.28 0.66,-3.41l4.11 -20.24c0.01,-0.02 0.02,-0.05 0.03,-0.07 0.01,-0.02 0.02,-0.05 0.03,-0.07 0.13,0.58 0.32,1.16 0.48,1.7 0.17,0.56 0.33,1.15 0.5,1.69 0.36,1.15 0.68,2.25 1.07,3.4 1.37,4.07 2.76,9.52 4.12,13.56l1.52 5.04c0.17,0.6 0.32,1.24 0.75,1.53 0.53,-0.12 0.64,-0.55 0.82,-1.27 0.13,-0.53 0.27,-1.08 0.43,-1.65 0.9,-3.16 1.62,-6.75 2.58,-10.14l2.98 -11.82c0.19,-0.68 0.25,-1.43 0.54,-1.65 0,0.55 4.13,18.04 4.59,19.85l1.57 6.68 3.78 0 -2.56 -11.25c-0.3,-1.27 -0.62,-2.52 -0.92,-3.75 -0.61,-2.49 -1.09,-4.99 -1.73,-7.51 -0.31,-1.25 -0.61,-2.42 -0.89,-3.68l-0.63 -2.84c-0.24,-1.04 0.25,-0.77 -3.6,-0.77 -0.5,0 -0.25,0.85 -0.31,1.38l-4.58 17.88c-0.08,0.34 -0.59,2.43 -0.77,2.7z"/>
   <path class="fil1" d="M110.43 123.22c0,0.06 0.16,0.99 1.19,0.3l0 -27.13c0.53,0.36 2.51,2.76 3.2,3.45 0.28,0.29 0.59,0.54 0.84,0.85l13.67 14.85c0.25,0.3 0.56,0.57 0.84,0.85l3.98 4.36c0.45,0.56 2.83,2.99 3.39,3.36 0.12,-0.24 0.2,-0.43 0.2,-0.79l0 -28.62c0,-0.96 -0.78,-0.67 -1.09,-0.6 -0.24,1.04 -0.1,10.08 -0.1,11.92 0,4.04 0,8.08 0,12.12 -0.59,-0.4 -6.02,-6.46 -7.03,-7.48 -0.53,-0.53 -0.92,-1 -1.44,-1.54 -1.46,-1.51 -3.51,-3.92 -4.92,-5.32l-2.08 -2.29c-1.42,-1.41 -2.85,-3.13 -4.28,-4.57 -0.45,-0.45 -2.57,-2.96 -2.9,-2.96l-3.48 0 0 29.21z"/>
   <path class="fil1" d="M174.31 117.46c0.09,-0.38 0.3,-0.76 0.46,-1.14 0.19,-0.45 0.31,-0.76 0.5,-1.19 0.61,-1.46 6.67,-16.01 6.7,-16.35 0.43,0.31 3.75,7.87 4.37,9.14 0.37,0.75 0.72,1.54 1.1,2.28l2.15 4.6c0.2,0.41 0.34,0.77 0.53,1.16 0.24,0.48 0.5,0.98 0.5,1.49 0,0.5 -1.08,0.79 -1.59,0.79 -1.32,0 -2.64,-0.44 -3.72,-0.75 -4.37,-1.25 -4.5,-1.89 -9.22,-0.56 -0.47,0.13 -1.41,0.35 -1.77,0.52zm-3.58 6.46c0.88,0 1,-0.89 1.29,-1.49 1.66,-3.43 1.43,-5.26 6.34,-4.06 4.47,1.1 6.52,2.62 11.56,0.59 0.37,-0.15 0.94,-0.43 1.28,-0.51l2.05 4.21c0.83,1.65 -0.04,1.26 4.21,1.26 -0.01,-0.6 -3.16,-7 -3.48,-7.65l-1.75 -3.81c-1.12,-2.23 -2.42,-5.26 -3.55,-7.58l-5.33 -11.46c-0.3,0.22 -0.31,0.44 -0.47,0.82 -0.14,0.34 -0.28,0.66 -0.42,0.97l-5.73 13.45c-1.14,2.56 -2.14,5.09 -3.28,7.65 -0.57,1.28 -1.03,2.62 -1.62,3.84 -0.14,0.28 -1.91,3.78 -1.09,3.78z"/>
   <path class="fil1" d="M218.63 117.46l0.96 -2.32c0.29,-0.81 0.62,-1.54 0.96,-2.32l3.82 -9.3c0.31,-0.71 1.88,-4.26 1.92,-4.74l0.2 0c0.07,0.29 0.36,0.89 0.5,1.19l1.62 3.45c0.97,1.93 2.25,5.03 3.21,6.92l2.15 4.6c0.98,2.03 1.51,2.63 0.44,3.09 -1.92,0.81 -5.82,-0.95 -7.82,-1.47 -3.68,-0.95 -4.62,0.12 -7.95,0.9zm-3.58 6.46c0.77,0 0.97,-0.65 1.31,-1.48 0.29,-0.71 1.41,-3.35 1.9,-3.76 2.49,-2.1 7.54,1.27 10.9,1.27 4.08,0 5.53,-1.41 6.46,-1.49 0.08,0.35 0.44,1.08 0.6,1.39l1.33 2.65c0.25,0.5 0.42,0.97 0.66,1.42l3.68 0c-1.11,-2.31 -2.41,-5.43 -3.51,-7.62l-2.68 -5.66c-1.09,-2.27 -2.44,-5.46 -3.54,-7.69l-1.82 -3.85c-0.3,-0.7 -0.57,-1.24 -0.87,-1.92 -0.15,-0.34 -1.62,-3.58 -1.89,-3.78l-9.77 22.92c-0.6,1.27 -1.13,2.55 -1.64,3.82l-1.24 2.84c-0.12,0.27 -0.25,0.92 0.13,0.92z"/>
   <path class="fil1" d="M84 117.46c0.15,-0.66 4.71,-11.48 5.24,-12.85l1.96 -4.7c0.17,-0.43 0.35,-0.79 0.45,-1.23l2.19 4.57c1.19,2.38 2.59,5.75 3.77,8.15 0.34,0.69 2.68,5.53 2.68,5.86 0,2.4 -7.17,-0.38 -8.45,-0.7 -2.81,-0.7 -3.77,-0.35 -6.55,0.51 -0.34,0.1 -1.01,0.24 -1.3,0.39zm-3.87 6.06c0,0.35 0.67,1.12 1.58,-1.11 0.33,-0.82 1.4,-3.4 1.9,-3.77 2.74,-2.03 7.28,1.3 11.03,1.3 3.68,0 4.76,-1.14 6.26,-1.49l2.68 5.46 3.58 0c-0.16,-0.7 -6.57,-14.16 -7.03,-15.23l-0.89 -1.89c-0.9,-1.78 -1.78,-3.97 -2.65,-5.7 -0.33,-0.66 -0.57,-1.21 -0.89,-1.89l-2.22 -4.74c-0.13,-0.28 -0.37,-0.8 -0.43,-1.06l-10.57 24.4c-0.28,0.67 -0.53,1.21 -0.81,1.87 -0.29,0.68 -0.5,1.22 -0.78,1.9 -0.18,0.43 -0.75,1.5 -0.75,1.93z"/>
   <path class="fil1" d="M142.22 107.92c0,4.93 1.2,8.07 3.9,11.11 0.17,0.19 0.15,0.21 0.3,0.39 1.09,1.3 3.32,2.74 4.88,3.37 5,2.02 9.5,1.63 14.27,-0.85 0.66,-0.34 3.38,-1.86 3.38,-2.58l0 -9.54c0,-0.23 -0.07,-0.3 -0.3,-0.3 -3.85,0 -3.4,-0.27 -3.38,0.99l0 9.14c0.01,1.23 -0.04,1.23 -0.83,1.75 -1.18,0.78 -2.36,1.16 -3.77,1.4 -4.57,0.77 -9.02,-0.55 -11.86,-4.28 -1.91,-2.52 -2.82,-6.38 -2.82,-9.6 0,-3.6 1.39,-8.07 3.06,-9.96 0.27,-0.3 0.45,-0.6 0.75,-0.84l1.84 -1.44c1.12,-0.71 2.05,-1.22 3.42,-1.55 3.08,-0.73 6.1,-0.17 8.68,1.41 0.89,0.54 1.08,1.05 1.53,1.05 0.37,0 1.08,-0.81 0.14,-1.44 -1.08,-0.73 -1.27,-0.81 -2.54,-1.33 -1.02,-0.42 -1.86,-0.64 -2.95,-0.82 -3.44,-0.59 -8.29,0.67 -11.16,2.48 -0.29,0.19 -0.46,0.34 -0.75,0.54 -0.91,0.62 -1.25,1.03 -2.03,1.84 -0.23,0.24 -0.36,0.44 -0.59,0.7 -0.19,0.21 -0.42,0.51 -0.57,0.72 -0.33,0.46 -0.64,1 -0.95,1.53 -1,1.69 -1.63,3.96 -1.63,6.12z"/>
   <path class="fil1" d="M193.59 94.5c0.2,0.29 0.41,0.4 0.89,0.4l9.34 0 0 28.92 3.58 0 0 -28.62c0,-0.49 1.42,-0.3 2.38,-0.3l5.56 0c0.93,0 2.38,0.28 2.38,-0.5 0,-0.23 -0.16,-0.4 -0.4,-0.4l-23.05 0c-0.42,0 -0.61,0.16 -0.7,0.5z"/>
   <path class="fil1" d="M191.8 142.7l1.49 0 0.19 -3.09c0.03,-0.34 -0,-0.74 0,-1.09 0.01,-0.51 0.08,-0.55 0.1,-0.99l0.26 -2.75 2.01 6.93c0.32,0.99 0.08,0.88 1.3,0.88 0.39,0 0.4,-0.53 0.51,-0.88l1.02 -3.15c0.29,-0.74 0.43,-1.31 0.69,-2.09l0.66 -2.12c0,0.91 0.02,3.41 0.14,4.23l0.15 3.13c0.01,0.52 0.09,0.56 0.1,0.99l1.59 0 -0.59 -9.25c-0.1,-1.35 0.55,-1.19 -1.89,-1.19 -0.39,0 -0.6,1.22 -0.78,1.8 -0.63,2.07 -1.14,3.32 -1.75,5.6 -0.13,0.48 0.08,0.21 -0.25,0.45 -0.03,-1.18 -2,-6.62 -2.29,-7.85 -2.83,0 -1.88,-0.82 -2.29,4.27 -0.16,1.96 -0.39,4.09 -0.39,6.17z"/>
   <path class="fil1" d="M119.47 139.91c0,-0.62 -0.06,-0.87 0.34,-1.45 0.18,-0.26 0.34,-0.45 0.66,-0.54 0.36,0.24 0.97,1.09 1.32,1.47 0.37,0.39 1.13,1.17 1.17,1.61 -0.38,0.1 -0.29,0.23 -0.7,0.39 -1.52,0.59 -2.77,-0.26 -2.77,-1.48zm1.59 -3.68c-2.01,-3 1.49,-3.98 1.49,-1.79 0,0.81 -0.84,1.64 -1.49,1.79zm-2.19 -1.49c0,0.82 0.51,1.6 0.89,2.19 -0.76,0.2 -1.89,1.59 -1.89,2.58 0,0.93 0.03,1.76 0.73,2.45 0.12,0.12 0.53,0.41 0.69,0.5 1.23,0.63 2.62,0.46 3.78,-0.13 0.45,-0.23 0.42,-0.31 0.76,-0.53 0.79,1.17 1.16,0.89 2.68,0.89 -0.45,-0.68 -1.14,-1.21 -1.59,-1.89 0.17,-0.31 0.33,-0.52 0.49,-0.8 0.41,-0.7 0.88,-2.29 0.9,-3.08l-1.49 0c0,1 -0.44,2.12 -0.79,2.78 -0.37,-0.25 -1.96,-2.24 -2.19,-2.58 0.77,-0.21 2.09,-1.34 2.09,-2.48l0 -0.5c0,-1.03 -0.96,-1.99 -1.99,-1.99 -1.23,0 -2.36,0.26 -2.84,1.53 -0.08,0.2 -0.24,0.85 -0.24,1.06z"/>
   <path class="fil1" d="M173.92 139.32c0,-1.19 0.15,-2.98 1.79,-2.98 1.9,0 1.59,2.2 1.59,3.48 0,2.3 -3.38,2.33 -3.38,-0.5zm3.38 -3.48c-0.62,-0.42 -0.56,-0.72 -1.67,-0.82 -3.9,-0.34 -4.46,6.09 -1.66,7.53 0.6,0.31 1.27,0.4 2,0.21 0.38,-0.1 0.59,-0.22 0.88,-0.41 0.42,-0.29 0.36,-0.43 0.65,-0.64 0,0.53 0,0.59 0.1,0.99l1.39 0 0 -10.93c-2.14,0 -1.69,-0.79 -1.69,4.07z"/>
   <path class="fil1" d="M73.07 137.13c0,2.13 0.33,3.91 2.19,5.07 0.65,0.4 1.56,0.6 2.5,0.69 0.55,0.05 2.08,-0.18 2.66,-0.49 -0.1,-0.43 -0.2,-0.87 -0.3,-1.29 -1.43,0.33 -0.58,0.3 -2.29,0.3 -4.12,0 -4.08,-7.85 0.1,-7.85 1.75,0 1.44,0.24 2.19,0.3 0.09,-0.39 0.26,-0.88 0.3,-1.29 -1.67,-0.88 -5.68,-0.58 -6.92,2.52 -0.21,0.53 -0.44,1.36 -0.44,2.05z"/>
   <path class="fil1" d="M158.82 141.6c-2.43,0 -2.4,-5.37 0,-5.37 2.35,0 2.37,5.37 0,5.37zm-3.48 -2.98c0,1.77 0.24,3.18 2.15,4.01 2.03,0.88 4.8,-0.57 4.8,-3.51 0,-2.36 -1.12,-4.14 -3.46,-4.11 -2.05,0.03 -3.49,1.57 -3.49,3.61z"/>
   <path class="fil1" d="M183.95 141.6c-2.42,0 -2.4,-5.37 0,-5.37 2.34,0 2.4,5.37 0,5.37zm-3.48 -3.18c0,1.01 -0.09,1.59 0.36,2.52 0.28,0.58 0.33,0.61 0.75,1.04 1.83,1.81 5.84,0.9 5.84,-3.06 0,-4.21 -4.09,-4.71 -5.79,-3.01 -0.59,0.59 -1.17,1.38 -1.17,2.51z"/>
   <path class="fil1" d="M142.62 135.44l0 3.88c0,1.6 0.33,2.78 1.45,3.32 1.22,0.58 2.46,0.06 3.32,-0.93 0,1.14 -0.27,0.99 1.49,0.99l0 -7.25c0,-0.46 -0.56,-0.3 -1.69,-0.3l0 4.67c0,1.88 -2.88,2.73 -2.88,-0.4l0 -4.27c-1.13,0 -1.69,-0.16 -1.69,0.3z"/>
   <path class="fil1" d="M95.42 136.14c0,-1.14 0.27,-0.99 -1.49,-0.99l0.1 7.55 1.59 0 0 -4.57c0,-1.94 2.98,-2.91 2.98,0.5l0 4.07 1.59 0 0 -4.77c0,-1.44 -0.79,-2.88 -2.19,-2.88 -1.97,0 -1.5,0.37 -2.58,1.09z"/>
   <path class="fil1" d="M104.76 136.24l0.4 0c0.83,0 1.29,1 1.29,1.89l-3.18 0c0.07,-0.8 0.64,-1.89 1.49,-1.89zm-3.08 2.29c0,1.58 0.1,3.2 1.87,3.99 1.13,0.51 2.98,0.42 4.09,-0.12 -0.02,-0.27 -0.2,-1 -0.3,-1.19 -1.38,0.66 -4.07,0.7 -4.07,-1.89l4.77 0 0 -0.89c0,-1.94 -1.22,-3.54 -3.13,-3.42 -1.84,0.12 -3.23,1.65 -3.23,3.52z"/>
   <path class="fil1" d="M84 141.6c-1.41,0 -1.8,-2.32 0.71,-2.58 0.91,-0.1 0.78,-0.31 0.78,1.29 0,0.72 -0.72,1.29 -1.49,1.29zm-2.19 -5.96c0.04,0.42 0.21,0.7 0.3,1.09 0.44,-0.1 3.38,-1.6 3.38,1.09 -1.88,0 -4.17,0.67 -4.17,2.48 0,1.24 0.22,2.15 1.7,2.48 0.49,0.11 0.99,0.07 1.48,-0.11 0.48,-0.17 0.72,-0.43 1.1,-0.69 0.14,0.26 0.1,0.27 0.1,0.7l1.49 0c0,-0.59 -0.1,-0.9 -0.1,-1.59 0.01,-1.37 0.15,-3.98 -0.34,-4.83 -0.97,-1.7 -3.32,-1.49 -4.93,-0.63z"/>
   <path class="fil1" d="M205.91 141.6c-1.57,0 -1.6,-2.58 0.89,-2.58l0.6 0c0,1.01 0.22,2.58 -1.49,2.58zm-2.19 -5.96c0.09,0.4 0.26,0.67 0.3,1.09 0.46,-0.11 3.38,-1.6 3.38,1.09 -5.25,0 -4.98,4.4 -2.48,4.97 0.53,0.12 0.98,0.07 1.47,-0.11 0.88,-0.31 0.73,-0.56 1.2,-0.69l0 0.7 1.49 0c0,-0.69 -0.1,-1 -0.1,-1.59 -0.04,-3.05 0.67,-5.84 -2.55,-6.1 -1.05,-0.08 -1.9,0.2 -2.71,0.63z"/>
   <path class="fil1" d="M130.7 142.7l1.59 0 0 -4.27c0,-0.23 0.07,-0.3 0.3,-0.3l3.28 0 0 -1.29 -3.28 0c-0.23,0 -0.3,-0.07 -0.3,-0.3 0,-3.48 -0.48,-2.88 1.89,-2.88 2.32,0 1.99,0.34 1.99,-1.39l-5.46 0 0 10.43z"/>
   <path class="fil1" d="M151.06 134.05l0 1.09 -0.99 0 0 1.29 0.99 0 0 3.78c0,1.57 0.49,2.54 2.01,2.66 0.37,0.03 0.99,-0.14 1.37,-0.18 0,-0.6 -0.1,-0.72 -0.1,-1.29 -0.12,0.01 -1.59,0.43 -1.59,-0.79l0 -4.17c2.07,0 1.79,0.23 1.79,-0.99 0,-0.47 -0.61,-0.3 -1.79,-0.3l0 -1.79c-0.36,0.03 -1.69,0.3 -1.69,0.7z"/>
   <path class="fil1" d="M111.12 141.6c-0.61,0 -1.38,-0.28 -1.79,-0.5 -0.27,1.16 -0.83,1.43 1.09,1.7 1.01,0.14 2.22,0 2.92,-0.78 1.05,-1.18 0.76,-2.89 -1.35,-3.78 -2.48,-1.05 -0.91,-2.75 1.22,-1.62 0.13,-0.28 0.32,-0.86 0.4,-1.19 -1.85,-0.98 -4.76,-0.28 -4.38,2.19 0.09,0.57 0.29,0.74 0.63,1.07 0.89,0.87 1.42,0.65 2.05,1.23 0.7,0.64 0.42,1.67 -0.78,1.67z"/>
   <path class="fil1" d="M163.48 137.23c0,2.4 3.08,1.9 3.08,3.48 0,1.38 -1.99,0.87 -2.88,0.4 -0.17,0.36 -0.3,0.86 -0.4,1.29 0.54,0.13 0.4,0.25 1.48,0.4 0.56,0.08 1.03,0.08 1.63,-0.07 2.2,-0.54 2.39,-3.25 0.39,-4.25 -0.93,-0.47 -1.72,-0.65 -1.72,-1.36 0,-1.64 2.46,-0.5 2.48,-0.5 0.11,-0.47 0.3,-0.7 0.3,-1.29 -0.36,-0.03 -1.62,-0.65 -2.84,-0.16 -0.79,0.31 -1.53,1.01 -1.53,2.05z"/>
   <path class="fil1" d="M90.46 136.34c0,-1.36 0.28,-1.19 -1.49,-1.19l0 7.55 1.69 0c0,-1.42 -0.21,-4.36 0.34,-5.33 0.48,-0.85 1.07,-0.73 1.85,-0.73l0 -1.59c-1.71,0 -1.52,0.29 -2.38,1.29z"/>
   <path class="fil1" d="M212.37 136.34c0,-1.36 0.29,-1.19 -1.49,-1.19 0,1.41 0.1,2.46 0.1,3.88l0 3.68 1.59 0 0 -3.58c0,-2.23 0.82,-2.48 2.19,-2.48l0 -1.59c-0.72,0 -1.12,-0.05 -1.72,0.47 -0.13,0.11 -0.22,0.22 -0.33,0.37l-0.34 0.46z"/>
   <path class="fil1" d="M139.14 136.44c0,-1.43 0.24,-1.29 -1.19,-1.29 -0.51,0 -0.2,0.52 -0.2,0.99l0 6.56 1.59 0c0,-1.2 -0.19,-4.51 0.34,-5.33 0.52,-0.81 1.15,-0.73 1.85,-0.73l0 -1.59c-1.85,0 -1.59,0.48 -2.38,1.39z"/>
   <path class="fil1" d="M236.39 98.15c-0.01,-0.07 0.01,-0.15 0.01,-0.21 0.02,-0.8 0.33,-1.58 0.82,-2.19 0.47,-0.58 1.24,-1.09 1.98,-1.25 0.13,-0.03 0.25,-0.06 0.39,-0.08 0.06,-0.01 0.15,-0.02 0.21,-0.02 0.08,-0.01 0.15,-0 0.22,-0.01 0.13,-0.02 0.7,0.05 0.82,0.08 0.2,0.05 0.35,0.09 0.54,0.16 0.26,0.1 0.38,0.16 0.62,0.3 0.03,0.02 0.04,0.03 0.07,0.04 0.03,0.02 0.04,0.02 0.07,0.04 0.1,0.07 0.31,0.22 0.39,0.3 0.04,0.04 0.08,0.06 0.12,0.11 0.04,0.04 0.08,0.07 0.11,0.11l0.11 0.12c0.04,0.05 0.07,0.08 0.1,0.13 0.02,0.03 0.03,0.04 0.05,0.06 0.02,0.02 0.03,0.04 0.05,0.07 0.07,0.09 0.12,0.18 0.18,0.28 0.3,0.49 0.44,1.01 0.5,1.58 0.01,0.08 0,0.15 0.01,0.22 0.02,0.13 -0.05,0.7 -0.08,0.82 -0.06,0.27 -0.13,0.47 -0.22,0.7 -0.13,0.3 -0.32,0.61 -0.52,0.87l-0.22 0.25c-0.32,0.32 -0.65,0.55 -1.08,0.76 -0.33,0.16 -0.71,0.27 -1.07,0.32 -0.16,0.02 -0.36,0.03 -0.43,0.04 -0.09,0.01 -0.13,-0.01 -0.2,-0.01 -0.09,-0 -0.15,-0.01 -0.22,-0.01 -0.23,-0.02 -0.56,-0.09 -0.77,-0.16 -0.06,-0.02 -0.11,-0.04 -0.17,-0.06 -0.15,-0.06 -0.34,-0.14 -0.48,-0.22 -0.19,-0.11 -0.38,-0.23 -0.56,-0.37l-0.35 -0.33c-0.38,-0.45 -0.55,-0.68 -0.79,-1.3 -0.12,-0.31 -0.17,-0.62 -0.21,-0.95 -0.01,-0.11 0.01,-0.07 -0.01,-0.22zm8.32 -0.21l0 0.33c-0.02,0.47 -0.11,0.94 -0.27,1.38 -0.11,0.3 -0.2,0.49 -0.36,0.76 -0.63,1.09 -1.67,1.86 -2.88,2.17 -0.31,0.08 -0.64,0.13 -0.98,0.14l-0.3 0c-0.33,-0.01 -0.66,-0.06 -0.98,-0.14 -0.15,-0.04 -0.3,-0.08 -0.43,-0.13 -0.13,-0.05 -0.26,-0.11 -0.39,-0.16 -0.07,-0.03 -0.13,-0.06 -0.19,-0.09 -0.62,-0.31 -1.26,-0.88 -1.64,-1.44 -0.13,-0.2 -0.32,-0.5 -0.41,-0.71 -0.14,-0.33 -0.2,-0.46 -0.29,-0.83 -0.13,-0.5 -0.14,-0.75 -0.14,-1.27 0,-0.34 0.07,-0.72 0.14,-0.99 0.15,-0.56 0.38,-1.06 0.7,-1.53 0.41,-0.58 1.02,-1.13 1.66,-1.44 0.06,-0.03 0.12,-0.06 0.18,-0.09 0.79,-0.33 1.16,-0.43 2.09,-0.43 0.7,0 1.59,0.27 2.19,0.63 0.58,0.35 1.08,0.78 1.46,1.34 0.13,0.2 0.32,0.5 0.41,0.71 0.06,0.14 0.11,0.26 0.16,0.4 0.16,0.45 0.25,0.93 0.27,1.41z"/>
   <path class="fil1" d="M239.3 97.7c0.03,-0.05 0.01,-1.09 0.01,-1.24 0.62,0 1.25,-0.1 1.25,0.62 0,0.75 -0.68,0.62 -1.26,0.62zm-1.25 2.71l1.22 0c0.03,0 0.04,-0.01 0.04,-0.04l0 -1.8c0.22,0 0.51,-0.02 0.7,0.06 0.33,0.14 0.51,0.61 0.68,0.95l0.13 0.28c0.09,0.19 0.18,0.37 0.27,0.55l1.33 0c-0,-0.05 -0.25,-0.53 -0.3,-0.64 -0.1,-0.22 -0.21,-0.43 -0.32,-0.64 -0.11,-0.22 -0.2,-0.4 -0.34,-0.6 -0.06,-0.07 -0.16,-0.19 -0.23,-0.24 -0.06,-0.05 -0.23,-0.15 -0.32,-0.15 0.02,-0.03 0.06,-0.04 0.11,-0.06 0.3,-0.13 0.46,-0.23 0.64,-0.53 0.23,-0.37 0.23,-1.18 -0.14,-1.55 -0.14,-0.13 -0.22,-0.2 -0.41,-0.28 -0.33,-0.13 -0.71,-0.18 -1.17,-0.18l-1.89 0 0 4.86z"/>
  </g>
 </g>
</svg>
